<?xml version="1.0" encoding="UTF-8" standalone="no"?>
<!-- Created with Inkscape (http://www.inkscape.org/) -->

<svg
   xmlns:dc="http://purl.org/dc/elements/1.1/"
   xmlns:cc="http://creativecommons.org/ns#"
   xmlns:rdf="http://www.w3.org/1999/02/22-rdf-syntax-ns#"
   xmlns:svg="http://www.w3.org/2000/svg"
   xmlns="http://www.w3.org/2000/svg"
   xmlns:sodipodi="http://sodipodi.sourceforge.net/DTD/sodipodi-0.dtd"
   xmlns:inkscape="http://www.inkscape.org/namespaces/inkscape"
   width="79.374939mm"
   height="75.845512mm"
   viewBox="0 0 79.374939 75.845512"
   version="1.1"
   id="svg1112"
   inkscape:version="0.92.4 (5da689c313, 2019-01-14)"
   sodipodi:docname="Stu logo.svg">
  <defs
     id="defs1106" />
  <sodipodi:namedview
     id="base"
     pagecolor="#ffffff"
     bordercolor="#666666"
     borderopacity="1.0"
     inkscape:pageopacity="0.0"
     inkscape:pageshadow="2"
     inkscape:zoom="1.4"
     inkscape:cx="42.299817"
     inkscape:cy="164.20848"
     inkscape:document-units="mm"
     inkscape:current-layer="layer1"
     showgrid="false"
     inkscape:window-width="1366"
     inkscape:window-height="705"
     inkscape:window-x="-8"
     inkscape:window-y="-8"
     inkscape:window-maximized="1" />
  <metadata
     id="metadata1109">
    <rdf:RDF>
      <cc:Work
         rdf:about="">
        <dc:format>image/svg+xml</dc:format>
        <dc:type
           rdf:resource="http://purl.org/dc/dcmitype/StillImage" />
        <dc:title></dc:title>
      </cc:Work>
    </rdf:RDF>
  </metadata>
  <g
     inkscape:label="Layer 1"
     inkscape:groupmode="layer"
     id="layer1"
     transform="translate(-81.41234,-78.684437)">
    <path
       style="clip-rule:nonzero;fill:#002151;fill-opacity:1;fill-rule:nonzero;stroke:none;stroke-width:1.07024729"
       d="m 85.229165,140.33244 h -1.183129 c -0.01669,1.54268 -0.0334,3.07695 -0.0334,5.6606 0,1.37545 0.09611,2.14888 0.55184,2.71744 0.443159,0.55184 1.250018,0.78596 2.38298,0.78596 1.103695,0 1.956543,-0.26758 2.462406,-0.93228 0.455688,-0.59787 0.472407,-1.54267 0.489135,-3.04354 l 0.02912,-5.18818 h -1.371252 v -0.99501 h 3.81694 v 0.99501 H 91.16142 l -0.0334,5.97832 c 0,1.26257 -0.142163,2.17813 -0.865402,3.06026 -0.631276,0.7734 -1.801857,1.19983 -3.36124,1.19983 -1.927283,0 -2.984995,-0.48914 -3.628813,-1.37124 -0.522582,-0.71072 -0.614557,-1.48415 -0.614557,-3.33199 0,-1.79769 0.01244,-3.85037 0.02943,-5.53518 H 81.41234 v -0.99501 h 3.81694 z m 0,0"
       id="path365"
       inkscape:connector-curvature="0" />
    <path
       inkscape:connector-curvature="0"
       id="path369"
       d="m 98.74521,149.38774 h 1.040987 c 0,-1.26257 0.06271,-2.58784 0.06271,-3.89637 0,-0.79014 -0.0334,-2.37043 -1.847846,-2.37043 -1.149681,0 -2.41224,0.69816 -2.41224,2.90556 l -0.02912,3.36124 h 1.183125 v 0.99498 h -3.536838 v -0.99498 h 1.040985 l 0.06689,-6.15392 h -1.312722 v -0.99501 h 2.604542 c 0,0.31775 -0.01669,0.75671 -0.04602,0.97827 l -0.129603,0.8236 h 0.0334 c 0.346996,-1.23329 1.655535,-1.99 2.884649,-1.99 2.240831,0 2.796851,1.5134 2.796851,3.06023 0,1.38798 -0.0669,3.01426 -0.0669,4.27683 h 1.19984 v 0.99498 h -3.532646 z m 0,0"
       style="fill:#002151;fill-opacity:1;fill-rule:nonzero;stroke:none;stroke-width:1.07024729" />
    <path
       inkscape:connector-curvature="0"
       id="path371"
       d="m 105.11653,138.12085 c 0.5393,0 0.97827,0.44318 0.97827,0.9783 0,0.53513 -0.43897,0.97827 -0.97827,0.97827 -0.53512,0 -0.97827,-0.44314 -0.97827,-0.97827 0,-0.53512 0.44315,-0.9783 0.97827,-0.9783 m -0.48913,5.11297 h -1.47996 v -0.99501 h 2.77595 l -0.0627,7.14893 h 1.29182 v 0.9908 h -3.87964 v -0.9908 h 1.29182 z m 0,0"
       style="fill:#002151;fill-opacity:1;fill-rule:nonzero;stroke:none;stroke-width:1.07024729" />
    <path
       inkscape:connector-curvature="0"
       id="path373"
       d="m 107.19431,142.23881 h 3.34452 v 0.99501 h -0.97827 l 1.87712,5.22161 c 0.0794,0.22146 0.1296,0.45989 0.17559,0.694 h 0.0334 c 0.046,-0.2342 0.0919,-0.47241 0.1714,-0.694 l 1.92728,-5.22161 h -1.05771 v -0.99501 h 3.24836 v 0.99501 h -0.89884 l -2.8094,7.1489 h -1.29182 l -2.82613,-7.1489 h -0.91556 z m 0,0"
       style="fill:#002151;fill-opacity:1;fill-rule:nonzero;stroke:none;stroke-width:1.07024729" />
    <path
       inkscape:connector-curvature="0"
       id="path375"
       d="m 122.34918,145.42866 c 0,-1.27928 -0.80687,-2.38296 -2.16139,-2.38296 -1.38799,0 -2.33698,1.04098 -2.41642,2.38296 z m -4.57781,0.9908 c 0.0502,1.67228 0.77342,3.07698 3.09368,3.07698 0.88212,0 1.76842,-0.26758 2.44569,-0.61455 l -0.046,1.1204 c -0.60202,0.30095 -1.86458,0.56856 -2.68398,0.56856 -2.57111,0 -4.16394,-1.4047 -4.16394,-4.24337 0,-2.39968 1.29182,-4.2768 3.77095,-4.2768 3.2191,0 3.51594,2.9181 3.51594,4.36878 z m 0,0"
       style="fill:#002151;fill-opacity:1;fill-rule:nonzero;stroke:none;stroke-width:1.07024729" />
    <path
       inkscape:connector-curvature="0"
       id="path377"
       d="m 126.19957,143.23382 h -1.38798 v -0.99501 h 2.6798 v 0.44314 c 0,0.47242 -0.0962,1.43397 -0.17141,2.0987 h 0.046 c 0.31355,-1.19986 0.73998,-2.68398 2.75924,-2.68398 0.11286,0 0.76087,0.0628 0.82359,0.12955 l -0.1296,1.16642 c -0.2174,-0.0795 -0.56857,-0.12529 -0.88212,-0.12529 -1.67227,0 -2.41223,1.63881 -2.44568,3.07275 l -0.0627,3.0477 h 1.37126 v 0.99083 h -3.81693 v -0.99083 h 1.15386 z m 0,0"
       style="fill:#002151;fill-opacity:1;fill-rule:nonzero;stroke:none;stroke-width:1.07024729" />
    <path
       inkscape:connector-curvature="0"
       id="path379"
       d="m 137.45807,144.49639 h -1.16641 l -0.0669,-1.15387 c -0.29682,-0.25089 -1.05351,-0.2967 -1.43395,-0.2967 -0.81941,0 -1.87712,0.26758 -1.87712,1.24582 0,0.88213 0.79015,1.14968 1.98999,1.35452 2.06525,0.347 2.93066,0.9783 2.93066,2.32025 0,1.45069 -0.97829,2.60456 -3.32781,2.60456 -0.88212,0 -2.28682,-0.22147 -2.79269,-0.48914 l -0.0627,-2.08195 h 1.16641 l 0.0627,1.21238 c 0.48915,0.23815 1.31273,0.36372 1.84786,0.36372 0.85285,0 1.87711,-0.36372 1.87711,-1.3587 0,-0.80268 -0.83613,-1.08697 -1.71825,-1.2751 -2.17812,-0.47242 -3.26927,-0.85285 -3.26927,-2.44567 0,-1.30856 0.86958,-2.44571 3.20656,-2.44571 0.67726,0 1.93982,0.22147 2.5711,0.48914 z m 0,0"
       style="fill:#002151;fill-opacity:1;fill-rule:nonzero;stroke:none;stroke-width:1.07024729" />
    <path
       inkscape:connector-curvature="0"
       id="path381"
       d="m 140.94056,138.12085 c 0.53512,0 0.97827,0.44318 0.97827,0.9783 0,0.53513 -0.44315,0.97827 -0.97827,0.97827 -0.53932,0 -0.97827,-0.44314 -0.97827,-0.97827 0,-0.53512 0.43895,-0.9783 0.97827,-0.9783 m -0.48914,5.11297 h -1.48415 v -0.99501 h 2.77596 l -0.0628,7.14893 h 1.29181 v 0.9908 h -3.87965 v -0.9908 h 1.29185 z m 0,0"
       style="fill:#002151;fill-opacity:1;fill-rule:nonzero;stroke:none;stroke-width:1.07024729" />
    <path
       inkscape:connector-curvature="0"
       id="path383"
       d="m 143.55764,142.23881 h 1.30856 l 0.0628,-1.98582 1.29181,-0.0795 -0.0628,2.06528 h 2.55856 v 0.99498 h -2.57528 c -0.0303,1.35452 -0.0628,2.72997 -0.0628,4.08449 0,1.17058 0,2.17813 1.24582,2.17813 0.66473,0 1.26256,-0.1881 1.61372,-0.33026 l -0.05,1.02426 c -0.40971,0.20478 -1.1664,0.38044 -1.83113,0.38044 -2.27008,0 -2.27008,-1.62629 -2.27008,-2.66726 0,-0.99502 0.0461,-3.48666 0.0628,-4.6698 h -1.29184 z m 0,0"
       style="fill:#002151;fill-opacity:1;fill-rule:nonzero;stroke:none;stroke-width:1.07024729" />
    <path
       inkscape:connector-curvature="0"
       id="path385"
       d="m 149.37293,142.23881 h 3.4365 v 0.99501 h -1.02426 l 1.93982,5.06276 c 0.0962,0.28426 0.1881,0.66473 0.22147,0.85285 h 0.0334 c 0.0303,-0.18809 0.12529,-0.56855 0.21752,-0.85285 l 1.81441,-5.06276 h -1.14968 v -0.99501 h 3.24835 v 0.99501 h -0.89881 l -2.4917,6.86464 c -1.15384,3.20236 -2.08196,4.43149 -4.13464,4.43149 -0.39299,0 -0.72325,-0.0628 -0.96155,-0.14228 v -1.07026 c 0.18809,0.0628 0.59783,0.13804 0.91556,0.13804 0.93228,0 1.89383,-0.56437 2.50838,-2.04853 l 0.26758,-0.66473 -2.9808,-7.50843 h -0.96156 z m 0,0"
       style="fill:#002151;fill-opacity:1;fill-rule:nonzero;stroke:none;stroke-width:1.07024729" />
    <path
       style="clip-rule:nonzero;fill:#002151;fill-opacity:1;fill-rule:nonzero;stroke:none;stroke-width:1.07024729"
       d="m 81.763402,133.82315 h 1.295994 v 1.50506 c 0.505863,0.30095 1.471592,0.40968 2.169769,0.40968 1.584469,0 2.629628,-0.72744 2.629628,-2.05687 0,-2.96409 -6.082858,-1.20401 -6.082858,-5.17983 0,-1.34618 0.794326,-3.15221 4.101231,-3.15221 0.811046,0 2.282635,0.20903 2.980799,0.52257 v 2.23249 h -1.237472 v -1.37545 c -0.409702,-0.17566 -1.32945,-0.30095 -1.852033,-0.30095 -1.1873,0 -2.533466,0.45989 -2.533466,1.91473 0,2.81777 6.078662,1.06188 6.078662,5.1464 0,2.44149 -2.090323,3.32362 -4.226642,3.32362 -1.818576,0 -2.709064,-0.42643 -3.323612,-0.55184 z m 0,0"
       id="path387"
       inkscape:connector-curvature="0" />
    <path
       inkscape:connector-curvature="0"
       id="path391"
       d="m 90.312838,128.4552 h 1.316909 l 0.06271,-1.99416 1.296003,-0.0795 -0.06271,2.07359 h 2.566923 v 0.99501 h -2.583639 c -0.02943,1.36289 -0.06271,2.7425 -0.06271,4.10121 0,1.17476 0,2.1865 1.250014,2.1865 0.668907,0 1.27092,-0.19234 1.617916,-0.33448 l -0.05018,1.03264 c -0.409714,0.20478 -1.170584,0.38043 -1.835314,0.38043 -2.27845,0 -2.27845,-1.63462 -2.27845,-2.6756 0,-0.99917 0.04602,-3.5034 0.06271,-4.6907 h -1.300181 z m 0,0"
       style="fill:#002151;fill-opacity:1;fill-rule:nonzero;stroke:none;stroke-width:1.07024729" />
    <path
       inkscape:connector-curvature="0"
       id="path393"
       d="m 100.36731,135.73789 c 1.73915,0 2.59618,-1.4256 2.59618,-3.1982 0,-1.77258 -0.85703,-3.19818 -2.59618,-3.19818 -1.743339,0 -2.596187,1.4256 -2.596187,3.19818 0,1.7726 0.852848,3.1982 2.596187,3.1982 m 0,-7.475 c 2.48331,0 3.95908,1.71408 3.95908,4.05524 0,2.59618 -1.47577,4.49838 -3.95908,4.49838 -2.487493,0 -3.959081,-1.70989 -3.959081,-4.05524 0,-2.59618 1.471588,-4.49838 3.959081,-4.49838"
       style="fill:#002151;fill-opacity:1;fill-rule:nonzero;stroke:none;stroke-width:1.07024729" />
    <path
       inkscape:connector-curvature="0"
       id="path395"
       d="m 112.22364,136.41933 c -0.63128,0.1881 -1.45486,0.39718 -2.35788,0.39718 -3.23165,0 -4.26009,-2.1405 -4.26009,-4.27682 0,-3.11875 2.26591,-4.2768 4.0845,-4.2768 0.90302,0 1.80604,0.11285 2.64635,0.41389 v 2.13632 h -1.17059 v -1.28346 c -0.35117,-0.1253 -0.99917,-0.1881 -1.36289,-0.1881 -2.36207,0 -2.83448,1.86875 -2.83448,3.19821 0,0.44314 0.0627,3.1982 3.10204,3.1982 0.80687,0 1.45906,-0.22147 2.21575,-0.45989 z m 0,0"
       style="fill:#002151;fill-opacity:1;fill-rule:nonzero;stroke:none;stroke-width:1.07024729" />
    <path
       inkscape:connector-curvature="0"
       id="path397"
       d="m 114.60243,125.44512 h -1.58447 v -0.99917 h 2.88465 l -0.0334,7.60044 3.11878,-2.56274 v -0.0334 h -1.14132 v -0.99501 h 3.54938 v 0.99501 h -0.84032 l -3.38633,2.75922 3.68733,3.41979 h 0.8863 v 0.99498 h -3.5452 v -0.99498 h 0.98246 v -0.0334 l -3.31108,-3.15221 -0.0334,3.18564 h 1.07861 v 0.99502 h -3.54519 v -0.99502 h 1.17059 z m 0,0"
       style="fill:#002151;fill-opacity:1;fill-rule:nonzero;stroke:none;stroke-width:1.07024729" />
    <path
       inkscape:connector-curvature="0"
       id="path399"
       d="m 123.83332,125.44512 h -1.58447 v -0.99917 h 2.88465 l -0.0167,4.29354 c 0,0.36372 -0.0962,1.17058 -0.15888,1.52174 h 0.0334 c 0.347,-1.23747 1.66391,-1.99834 2.89719,-1.99834 2.24919,0 2.80105,1.52177 2.80105,3.07278 0,1.39217 -0.0627,3.0268 -0.0627,4.29355 h 1.20403 v 0.99498 h -3.54938 v -0.99498 h 1.04934 c 0,-1.26675 0.0627,-2.6004 0.0627,-3.91311 0,-0.79015 -0.0334,-2.3746 -1.85203,-2.3746 -1.15804,0 -2.42477,0.69398 -2.42477,2.91391 l -0.046,3.3738 h 1.20403 v 0.99498 h -3.67479 v -0.99498 h 1.17058 z m 0,0"
       style="fill:#002151;fill-opacity:1;fill-rule:nonzero;stroke:none;stroke-width:1.07024729" />
    <path
       inkscape:connector-curvature="0"
       id="path401"
       d="m 136.6512,135.73789 c 1.74332,0 2.60036,-1.4256 2.60036,-3.1982 0,-1.77258 -0.85704,-3.19818 -2.60036,-3.19818 -1.73915,0 -2.59619,1.4256 -2.59619,3.19818 0,1.7726 0.85704,3.1982 2.59619,3.1982 m 0,-7.475 c 2.48748,0 3.95907,1.71408 3.95907,4.05524 0,2.59618 -1.47159,4.49838 -3.95907,4.49838 -2.48331,0 -3.95908,-1.70989 -3.95908,-4.05524 0,-2.59618 1.47577,-4.49838 3.95908,-4.49838"
       style="fill:#002151;fill-opacity:1;fill-rule:nonzero;stroke:none;stroke-width:1.07024729" />
    <path
       inkscape:connector-curvature="0"
       id="path403"
       d="m 142.7215,125.44512 h -1.58445 v -0.99917 h 2.88464 l -0.067,11.18327 h 1.30018 v 0.99498 h -3.76676 v -0.99498 h 1.17058 z m 0,0"
       style="fill:#002151;fill-opacity:1;fill-rule:nonzero;stroke:none;stroke-width:1.07024729" />
    <path
       inkscape:connector-curvature="0"
       id="path405"
       d="m 146.40884,135.62922 h 1.04516 l 0.0628,-6.17904 h -1.31274 v -0.99498 h 2.61293 c 0,0.31354 -0.0152,0.76087 -0.0501,0.98245 l -0.1253,0.81943 h 0.0334 c 0.347,-1.23332 1.6639,-1.99419 2.89719,-1.99419 1.48831,0 2.26592,0.85704 2.47076,1.91892 h 0.0303 c 0.15897,-0.35116 0.66473,-1.91892 2.77177,-1.91892 2.24918,0 2.80521,1.52177 2.80521,3.07278 0,1.39217 -0.0628,3.02261 -0.0628,4.29355 h 1.19986 v 0.99498 h -3.54521 v -0.99498 h 1.04517 c 0.0152,-1.33365 0.0628,-2.64636 0.0628,-3.9591 0,-1.19149 -0.25514,-2.32861 -1.7726,-2.32861 -1.06188,0 -2.32861,0.69398 -2.34535,2.91391 l -0.0303,3.3738 h 1.17058 v 0.99498 h -3.56192 v -0.99498 h 1.04519 c 0.0121,-1.33365 0.0628,-2.64636 0.0628,-3.9591 0,-1.19149 -0.25514,-2.32861 -1.7726,-2.32861 -1.06188,0 -2.32863,0.69398 -2.34535,2.91391 l -0.0334,3.3738 h 1.19149 v 0.99498 h -3.54955 z m 0,0"
       style="fill:#002151;fill-opacity:1;fill-rule:nonzero;stroke:none;stroke-width:1.07024729" />
    <path
       inkscape:connector-curvature="0"
       id="path407"
       d="m 116.38757,82.856817 c 0.0334,0.03762 0.0167,0.0628 -0.0167,0.09192 -0.0627,0.0543 -0.41806,0.56859 -0.45987,0.631298 -0.0252,0.04611 -0.0294,-0.03034 -0.0124,-0.07524 0.0418,-0.121351 0.15885,-0.610364 -0.25502,-0.97827 -0.29263,-0.259084 -0.74416,-0.108609 -0.91139,0.138037 -0.22158,0.32607 -0.22574,0.62708 0,1.479934 0.23831,0.89466 0.14217,1.224946 -0.18812,1.605381 -0.30101,0.347003 -1.00336,0.535127 -1.62209,0.108609 -0.63546,-0.443173 -0.66054,-0.5435 -0.76088,-0.585305 -0.0752,-0.03034 -0.0752,-0.09192 0.004,-0.183847 0.11285,-0.133789 0.48913,-0.648013 0.55184,-0.739967 0.046,-0.06674 0.0544,0.0091 0.008,0.104362 -0.0586,0.129542 -0.28011,0.765056 0.24668,1.120402 0.51004,0.342816 0.83613,0.117104 1.00754,-0.08343 0.19231,-0.225712 0.30101,-0.443143 0.0334,-1.467405 -0.2843,-1.082783 -0.0878,-1.438129 0.32191,-1.755886 0.41806,-0.330257 0.97827,-0.351159 1.43814,0.0091 0.24665,0.192341 0.3679,0.330287 0.45988,0.418054 0.0544,0.05006 0.0794,0.108609 0.1087,0.133789 0.0209,0.02124 0.0291,0.0091 0.046,0.03034"
       style="fill:#002151;fill-opacity:1;fill-rule:nonzero;stroke:none;stroke-width:1.07024729" />
    <path
       inkscape:connector-curvature="0"
       id="path409"
       d="m 82.495014,95.072694 c 0.01669,-0.03762 0.05855,-0.01517 0.1087,0 0.13379,0.05006 0.543482,0.117103 0.681446,0.121351 0.112887,0.003 -0.07942,0.08343 -0.137976,0.09192 -0.163035,0.02124 -0.484951,0.112856 -0.62709,0.648014 -0.100296,0.380435 0.129603,0.681445 0.422244,0.744153 0.468232,0.09617 0.714893,-0.08373 1.408874,-0.63964 0.706536,-0.56859 1.187313,-0.63964 1.638817,-0.510038 0.418069,0.117104 0.915565,0.668886 0.748337,1.379608 -0.137945,0.618738 -0.309366,0.731624 -0.359526,0.861227 -0.02943,0.07949 -0.06271,0.108609 -0.179781,0.07524 -0.150506,-0.04187 -0.714894,-0.125295 -0.819416,-0.13379 -0.179781,-0.02124 -0.104453,-0.09192 0,-0.104361 0.292638,-0.03762 0.923923,-0.117104 1.049345,-0.735811 0.09611,-0.464046 -0.2174,-0.685633 -0.489135,-0.748341 -0.288451,-0.07524 -0.602012,-0.0628 -1.413058,0.606208 -0.87376,0.727438 -1.245843,0.723252 -1.718249,0.510038 -0.497506,-0.225713 -0.706536,-0.677259 -0.597842,-1.283467 0.06689,-0.384622 0.238303,-0.723252 0.267549,-0.76087 0.01669,-0.03034 0.0085,-0.09617 0.01669,-0.121351"
       style="fill:#002151;fill-opacity:1;fill-rule:nonzero;stroke:none;stroke-width:1.07024729" />
    <path
       inkscape:connector-curvature="0"
       id="path411"
       d="m 109.293,120.57048 c -0.0627,0 -0.0502,-0.0543 -0.0586,-0.0877 0,0 -0.15469,-0.51423 -0.16722,-0.55603 -0.0167,-0.0461 0.0294,-0.0543 0.0586,-0.0182 0.0794,0.0877 0.41388,0.39715 0.8863,0.28001 0.37207,-0.0919 0.58111,-0.49751 0.48495,-0.77758 -0.12123,-0.3721 -0.48913,-0.55188 -1.29181,-0.91978 -0.72744,-0.33444 -0.96156,-0.67307 -1.02845,-1.08694 -0.0794,-0.48917 0.23831,-1.17896 0.93229,-1.39636 0.61038,-0.18384 0.7567,-0.16716 0.87375,-0.22996 0.0919,-0.0461 0.10458,0.14623 0.11708,0.17991 0.0585,0.16321 0.2174,0.66473 0.25502,0.76087 0.0291,0.0877 -0.0334,0.1171 -0.0794,0.0243 -0.0585,-0.12955 -0.49332,-0.64799 -1.04099,-0.47242 -0.54348,0.17565 -0.62291,0.5644 -0.54765,0.81942 0.0836,0.28426 0.13379,0.51004 1.15385,0.93646 0.99082,0.41806 1.18313,0.84449 1.18732,1.32528 0.004,0.53512 -0.41808,0.94899 -0.98246,1.09115 -0.30519,0.0795 -0.36372,0.0543 -0.48914,0.0752 -0.0752,0.0121 -0.1296,0.0182 -0.16722,0.0212 -0.0252,0.003 -0.046,0.0303 -0.0962,0.0303"
       style="fill:#002151;fill-opacity:1;fill-rule:nonzero;stroke:none;stroke-width:1.07024729" />
    <path
       inkscape:connector-curvature="0"
       id="path413"
       d="m 116.87252,83.981406 c 0.1087,-0.05006 0.29264,-0.146228 0.40553,-0.242399 0.0502,-0.04187 0.15051,0 0.21322,0.0628 0.0375,0.04187 0.92392,0.915562 1.0995,1.103686 0.23831,0.250893 1.02009,0.969897 1.1246,1.070254 0.1003,0.09617 0.1965,0.150475 0.0962,0.217218 -0.1003,0.0628 -0.32191,0.188094 -0.38463,0.221465 -0.0585,0.03034 -0.046,0.003 -0.046,-0.06705 0,-0.07524 -0.0502,-0.188094 -0.27173,-0.418054 -0.22159,-0.22996 -0.47242,-0.489135 -0.51841,-0.526784 -0.046,-0.03762 -0.0627,-0.04187 -0.1003,-0.0091 -0.0669,0.05855 -0.93228,0.936464 -1.12878,1.137148 -0.17975,0.188094 -1.31272,1.295997 -1.34617,1.471592 -0.0334,0.179903 0.0252,0.217521 0.046,0.250893 0.0291,0.04611 0.0502,0.179599 -0.004,0.125295 -0.0544,-0.0543 -0.41806,-0.451517 -0.50585,-0.535127 -0.0962,-0.08768 -0.43479,-0.376249 -0.48496,-0.422241 -0.046,-0.03762 -0.0167,-0.07524 0.071,-0.04187 0.0794,0.03337 0.20068,0.100418 0.38461,0.0091 0.25921,-0.129542 1.2333,-1.132962 1.36708,-1.270938 0.13795,-0.138037 1.07861,-1.116216 1.1037,-1.145492 0.046,-0.04611 0.0585,-0.07099 0,-0.141981 -0.071,-0.08373 -0.64382,-0.631297 -0.76507,-0.710721 -0.10445,-0.07099 -0.17141,-0.100418 -0.26336,-0.100418 -0.0752,0 -0.1756,0 -0.0919,-0.03762"
       style="fill:#002151;fill-opacity:1;fill-rule:nonzero;stroke:none;stroke-width:1.07024729" />
    <path
       inkscape:connector-curvature="0"
       id="path415"
       d="m 84.572802,91.025824 c -0.08358,-0.08768 -0.280108,-0.259084 -0.392983,-0.355376 -0.05021,-0.04187 -0.02093,-0.09617 0.02518,-0.171408 0.02912,-0.04611 0.647989,-1.187297 0.79014,-1.404697 0.188124,-0.288512 0.74834,-1.224916 0.819403,-1.346176 0.07524,-0.129542 0.12123,-0.213274 0.179782,-0.158969 0.08777,0.07948 0.242489,0.263331 0.284294,0.3261 0.05021,0.06674 0.02093,0.03337 -0.05437,0.03337 -0.07524,0 -0.167221,0.146228 -0.338627,0.413898 -0.167221,0.271826 -0.305191,0.547656 -0.330277,0.602021 -0.0334,0.07524 0.01669,0.09617 0.05855,0.125295 0.07105,0.04611 1.099517,0.681476 1.341995,0.823609 0.221586,0.129542 1.571924,0.903032 1.76841,0.890472 0.183968,-0.0091 0.183968,-0.03762 0.2174,-0.0628 0.05018,-0.03762 0.154692,-0.0543 0.104452,0.003 -0.06271,0.06674 -0.292637,0.413898 -0.367896,0.551843 -0.08777,0.154722 -0.284264,0.522598 -0.313549,0.581119 -0.02518,0.0543 -0.02518,-0.03762 -0.02093,-0.117103 0.0042,-0.09617 0.06271,-0.179903 -0.07943,-0.296703 -0.246645,-0.200533 -1.429774,-0.894629 -1.596998,-0.994987 -0.163066,-0.100114 -1.316909,-0.752527 -1.400526,-0.781772 -0.05855,-0.02124 -0.1087,-0.09192 -0.154692,-0.0091 -0.05855,0.108609 -0.484951,0.781772 -0.522582,1.011702 -0.01669,0.104361 -0.02518,0.146228 -0.0042,0.242398 0.02093,0.100418 0.02518,0.138037 -0.01244,0.09192"
       style="fill:#002151;fill-opacity:1;fill-rule:nonzero;stroke:none;stroke-width:1.07024729" />
    <path
       inkscape:connector-curvature="0"
       id="path417"
       d="m 89.861322,84.090106 c -0.04184,-0.167161 -0.158879,-0.321914 -0.221587,-0.44733 -0.03768,-0.07524 -0.03768,-0.07099 0.05855,-0.154722 0.04602,-0.03337 1.082793,-0.798489 1.283461,-0.953181 0.280109,-0.217521 1.233292,-0.85704 1.34617,-0.940651 0.117043,-0.08768 0.238303,-0.129542 0.275921,-0.02427 0.04184,0.112856 0.154692,0.380435 0.175595,0.451516 0.02943,0.104362 -0.01669,0.02427 -0.08777,-0.03762 -0.05855,-0.05006 -0.158848,-0.04187 -0.426418,0.133789 -0.259205,0.175656 -0.631285,0.422271 -0.681449,0.468263 -0.06689,0.0543 -0.04602,0.04611 -0.02093,0.09192 0.05855,0.117104 0.739968,1.120403 0.932281,1.371265 0.154693,0.209027 1.099509,1.542643 1.279278,1.617911 0.117074,0.0543 0.192311,0.01517 0.225774,0.0091 0.05436,-0.01214 0.125416,0.0091 0.02912,0.0628 -0.07942,0.04611 -0.376258,0.246646 -0.476594,0.313541 -0.1087,0.07099 -0.367896,0.271825 -0.459874,0.351189 -0.1087,0.09617 -0.07939,-0.003 -0.02912,-0.07099 0.04184,-0.0543 0.08777,-0.108609 0.01244,-0.271826 -0.133789,-0.317697 -0.819415,-1.30434 -0.994998,-1.551016 -0.112887,-0.154722 -1.011717,-1.358705 -1.066064,-1.433943 -0.0334,-0.04187 -0.04184,-0.05855 -0.12123,0 -0.08777,0.0628 -0.77761,0.589462 -0.882118,0.685633 -0.07939,0.07524 -0.121229,0.09617 -0.129602,0.196588 -0.0042,0.0628 -0.0042,0.213274 -0.02093,0.133789"
       style="fill:#002151;fill-opacity:1;fill-rule:nonzero;stroke:none;stroke-width:1.07024729" />
    <path
       inkscape:connector-curvature="0"
       id="path419"
       d="m 118.83325,88.693005 c -0.95737,0.923935 -0.8403,1.973256 -0.35117,2.466578 0.48078,0.489135 1.5343,0.572746 2.45405,-0.309354 0.93228,-0.894659 0.8403,-2.0778 0.25501,-2.592024 -0.4306,-0.380435 -1.39634,-0.501664 -2.35789,0.4348 m 2.66309,-0.547656 c 0.63963,0.664729 1.14966,2.236648 -0.16307,3.331961 -1.11624,0.932308 -2.54184,0.547687 -3.13549,-0.108609 -0.55184,-0.610365 -1.11205,-2.031778 0.0919,-3.210732 1.17477,-1.145491 2.60037,-0.648013 3.20657,-0.01214"
       style="fill:#002151;fill-opacity:1;fill-rule:nonzero;stroke:none;stroke-width:1.07024729" />
    <path
       inkscape:connector-curvature="0"
       id="path421"
       d="m 121.10752,107.46832 c -1.30017,-0.46404 -2.13212,0.15472 -2.34116,0.76924 -0.20068,0.59784 0.0334,1.48413 1.34618,1.97745 1.27092,0.4766 2.22829,0.003 2.44567,-0.85286 0.0794,-0.32191 0.10027,-1.33361 -1.45069,-1.89383 m 1.67227,2.18228 c -0.29264,0.94484 -1.56356,1.9691 -3.08114,1.29185 -1.24583,-0.55603 -1.53848,-1.9482 -1.24583,-2.79268 0.27592,-0.77343 1.4047,-1.91474 2.86792,-1.34618 1.44233,0.56022 1.76005,1.88546 1.45905,2.84701"
       style="fill:#002151;fill-opacity:1;fill-rule:nonzero;stroke:none;stroke-width:1.07024729" />
    <path
       inkscape:connector-curvature="0"
       id="path423"
       d="m 121.12844,96.586091 c -0.11289,0.003 -0.45988,-0.03762 -0.57694,-0.0628 -0.1296,-0.02427 -0.14632,-0.03034 -0.18812,-0.08343 -0.0334,-0.04611 -0.58947,-0.706505 -0.58947,-1.722424 0,-1.107873 0.52676,-2.019248 1.58447,-2.332789 0.91556,-0.267578 1.87711,0.117104 2.42895,0.823579 0.44315,0.560216 0.49332,1.287654 0.51004,1.517583 0.0209,0.317727 0.046,0.510038 0.0627,0.614551 0.0291,0.175656 0.0252,0.221466 0.0627,0.267579 0.0377,0.04611 -0.0167,0.08768 -0.0836,0.09617 -0.0752,0.0091 -0.31774,0.04187 -0.44316,0.07524 -0.0961,0.02124 -0.29264,0.07524 -0.32191,0.08373 -0.13794,0.03337 -0.13379,-0.003 -0.0252,-0.08373 0.0794,-0.05855 0.38881,-0.213274 0.43898,-0.606178 0.046,-0.351189 0.10457,-1.120432 -0.45151,-1.684805 -0.41389,-0.42224 -1.09952,-0.756714 -2.09033,-0.351189 -0.78596,0.321913 -1.30855,1.024262 -1.31273,1.852026 -0.008,0.831952 0.48078,1.325273 0.95319,1.492495 0.1505,0.0543 0.23411,0.100418 0.0418,0.104665"
       style="fill:#002151;fill-opacity:1;fill-rule:nonzero;stroke:none;stroke-width:1.07024729" />
    <path
       inkscape:connector-curvature="0"
       id="path425"
       d="m 124.73634,97.121187 c -0.004,0.171409 0.0752,0.932309 0.1087,1.078628 0.0377,0.179902 -0.0418,0.100418 -0.0544,0.03337 -0.008,-0.0543 -0.0794,-0.162913 -0.21321,-0.175655 -0.20903,-0.02427 -1.11205,0.04187 -1.85621,0.138036 0.33863,0.359533 1.45905,1.166425 1.61373,1.270938 0.18394,0.129543 0.36372,0.246646 0.42225,0.242399 0.0377,-0.003 0.0167,0.03034 0.0377,-0.02124 0.0209,-0.07099 0.0961,-0.296702 0.0836,0.05006 -0.004,0.07948 -0.008,0.326067 0,0.392967 0.008,0.0628 0.0294,0.23421 0.0377,0.27183 0.0252,0.18809 -0.008,0.15047 -0.14213,-0.0212 -0.20484,-0.25089 -0.64383,-0.56022 -0.80269,-0.673106 -0.1505,-0.112857 -1.12042,-0.844481 -1.12042,-0.844481 0,0 -1.38797,1.321087 -1.64717,1.605387 -0.0919,0.10011 -0.44315,0.46823 -0.54349,0.6856 -0.0418,0.10042 -0.0794,0.15047 -0.0627,0.0543 0.0124,-0.0628 0.0544,-0.43895 0.0627,-0.60618 0.008,-0.14622 0.0252,-0.59364 0.0252,-0.639638 0.008,-0.09192 0.0418,-0.02427 0.0919,-0.01214 0.071,0.02124 0.46405,-0.347003 0.89048,-0.769243 0.32609,-0.317727 0.86957,-0.907189 0.9072,-0.965741 -0.11289,-0.01214 -1.14549,0.117104 -1.34617,0.162914 -0.20484,0.04187 -0.41807,0.09617 -0.48077,0.171408 -0.0627,0.07099 -0.0878,0.117104 -0.0919,0.175655 -0.008,0.0543 -0.0627,0.08343 -0.071,0.0091 -0.008,-0.07099 -0.0252,-0.468233 -0.0334,-0.606178 -0.008,-0.146228 -0.0585,-0.468233 -0.0669,-0.514225 -0.008,-0.04611 0.0377,-0.08343 0.0627,-0.02124 0.0291,0.06705 0.0502,0.09617 0.12961,0.129542 0.15469,0.0628 0.36371,0.0628 1.89383,-0.117103 1.53431,-0.175656 1.65136,-0.217522 1.80605,-0.259085 0.16306,-0.04187 0.26339,-0.100417 0.2801,-0.238454 0.0124,-0.07949 0.0794,-0.238455 0.0794,0.01214"
       style="fill:#002151;fill-opacity:1;fill-rule:nonzero;stroke:none;stroke-width:1.07024729" />
    <path
       inkscape:connector-curvature="0"
       id="path427"
       d="m 124.7656,102.38047 c -0.0334,0.13804 -0.15469,0.89466 -0.15469,1.04517 -0.004,0.15472 -0.071,0.15472 -0.0919,0.0501 -0.0209,-0.14623 -0.0794,-0.16292 -0.14213,-0.20054 -0.0627,-0.0419 -0.24668,-0.10466 -0.76088,-0.18809 -0.53094,-0.0837 -0.87375,-0.14623 -0.87375,-0.14623 0,0 -0.16722,0.69816 -0.25921,1.12459 -0.11288,0.53097 -0.24246,1.23332 -0.24246,1.23332 0,0 0.74834,0.21327 1.02008,0.28851 0.27592,0.0752 0.69399,0.25089 0.83195,0.0243 0.0919,-0.15897 0.15051,-0.12529 0.0627,0.0419 -0.0334,0.0628 -0.2174,0.79011 -0.24667,0.93228 -0.0586,0.26757 -0.0919,0.10041 -0.0794,0.0376 0.008,-0.0585 0.0627,-0.17565 -0.17559,-0.26757 -0.23831,-0.0962 -1.0368,-0.36372 -1.74334,-0.56856 -0.70235,-0.19659 -1.50921,-0.45571 -1.82694,-0.43062 -0.15885,0.0152 -0.20069,0.0501 -0.23831,0.10467 -0.0544,0.0752 -0.1505,0.10042 -0.0752,-0.0243 0.071,-0.11711 0.25083,-0.76506 0.2801,-0.9699 0.046,-0.31357 0.0962,-0.0962 0.0919,-0.0334 -0.009,0.071 0.0124,0.16322 0.14632,0.23845 0.34281,0.19659 1.61791,0.53094 1.61791,0.53094 0,0 0.16304,-0.64382 0.27174,-1.1413 0.1296,-0.58531 0.2174,-1.16642 0.2174,-1.16642 0,0 -0.3261,-0.0543 -0.55603,-0.0919 -0.22577,-0.0419 -1.07861,-0.16291 -1.19148,-0.12954 -0.10458,0.0334 -0.16723,0.1171 -0.18397,0.16291 -0.0167,0.0543 -0.12123,0.15473 -0.0627,-0.0376 0.0418,-0.13378 0.12542,-0.65638 0.14213,-0.95736 0.0124,-0.26758 0.0836,-0.15048 0.0836,-0.0752 0.004,0.0585 0.0669,0.16291 0.12542,0.18809 0.28429,0.12135 0.78597,0.19659 1.82277,0.34701 1.03262,0.15047 1.81022,0.25908 1.95237,0.21327 0.1505,-0.0501 0.13794,-0.10861 0.16722,-0.17141 0.0291,-0.0628 0.11288,-0.15897 0.071,0.0376"
       style="fill:#002151;fill-opacity:1;fill-rule:nonzero;stroke:none;stroke-width:1.07024729" />
    <path
       inkscape:connector-curvature="0"
       id="path429"
       d="m 120.55568,113.01606 c -0.11707,0.0795 -0.56856,0.63127 -0.70653,0.82358 -0.11289,0.15047 -0.0961,0.0303 -0.0669,-0.0303 0.0544,-0.10861 0.0209,-0.14228 -0.0209,-0.23846 -0.0669,-0.15472 -0.60201,-0.58527 -1.28346,-1.15805 -0.67726,-0.56437 -1.28764,-1.08697 -1.47159,-1.09531 -0.0919,-0.003 -0.17141,-0.0121 -0.36371,0.16291 -0.2843,0.25909 -0.61875,0.67726 -0.69817,0.81105 -0.1087,0.19234 -0.0878,0.37625 -0.0836,0.43896 0,0.10042 -0.0334,0.0877 -0.0669,0 -0.0418,-0.10042 -0.13798,-0.50167 -0.14214,-0.57275 -0.004,-0.0585 0,-0.0834 0.0586,-0.15472 0.1087,-0.11286 1.00335,-1.12877 1.13713,-1.27509 0.14214,-0.16292 0.35953,-0.41806 0.41388,-0.51423 0.0878,-0.14623 0.11288,-0.0419 0.0878,0.0334 -0.0294,0.0752 -0.0878,0.16292 -0.0418,0.29671 0.0919,0.26757 0.93646,0.89466 1.42142,1.28346 0.95738,0.77343 1.42561,1.17896 1.58447,1.17896 0.12123,0 0.15051,-0.0212 0.20903,-0.0671 0.046,-0.0376 0.15888,-0.0121 0.0334,0.0752"
       style="fill:#002151;fill-opacity:1;fill-rule:nonzero;stroke:none;stroke-width:1.07024729" />
    <path
       inkscape:connector-curvature="0"
       id="path431"
       d="m 115.05812,112.97007 c 0.0502,0.1171 0.50587,0.903 0.98246,1.70152 0.49332,0.82776 1.02844,1.68899 1.09951,1.81859 0.14631,0.2509 0.1505,0.31354 -0.10027,0.1881 -0.36371,-0.17991 -1.81859,-0.91557 -2.05688,-1.02845 -0.24246,-0.11711 -1.42978,-0.71907 -1.42978,-0.71907 0,0 0.25502,1.93983 0.27592,2.04853 0.0167,0.11285 0.22993,1.73076 0.24249,1.81019 0.008,0.0834 0.008,0.20903 -0.13798,0.071 -0.14632,-0.13804 -2.44569,-3.0686 -2.55856,-3.20236 -0.1087,-0.12529 -0.22159,-0.18385 -0.33863,-0.19659 -0.0878,-0.0121 -0.13379,-0.009 -0.17978,0.009 -0.0586,0.0212 -0.1003,-0.0303 -0.0167,-0.0628 0.1003,-0.0419 0.92394,-0.46407 1.00336,-0.51422 0.0502,-0.0303 0.11707,0.0121 0.0418,0.0585 -0.10027,0.0628 -0.11708,0.10861 -0.0962,0.20053 0.0502,0.22572 1.71408,2.29099 1.71408,2.29099 0,0 -0.28011,-1.85622 -0.33028,-2.09452 -0.046,-0.23845 -0.20902,-1.32943 -0.20902,-1.32943 0,0 0,-0.071 0.0669,-0.0334 0.0752,0.0376 1.70153,0.86957 1.86875,0.95318 0.16307,0.0834 1.22076,0.59784 1.22076,0.59784 0,0 -0.91557,-1.47997 -1.29182,-2.07362 -0.0962,-0.15047 -0.1965,-0.21752 -0.25083,-0.22996 -0.12542,-0.0243 -0.16723,0.0303 -0.24249,0.0628 -0.0377,0.0152 -0.0961,-0.0334 0.0167,-0.10042 0.13798,-0.0795 0.28848,-0.20053 0.38044,-0.27182 0.0919,-0.0752 0.32609,-0.29671 0.36372,-0.33445 0.046,-0.0461 0.1003,0.009 0.0544,0.0461 -0.0878,0.0834 -0.15888,0.16321 -0.0919,0.33444"
       style="fill:#002151;fill-opacity:1;fill-rule:nonzero;stroke:none;stroke-width:1.07024729" />
    <path
       inkscape:connector-curvature="0"
       id="path433"
       d="m 105.02037,118.61394 c -0.0124,0.0795 0.0124,0.97827 0.0252,1.09116 0,0.0501 -0.0418,0.0334 -0.0752,-0.0795 -0.008,-0.0334 -0.071,-0.15897 -0.18812,-0.1796 -0.35118,-0.0752 -1.00754,-0.0212 -1.00754,-0.0212 0,0 -0.0209,1.04098 0.0878,1.15805 0.10026,0.11286 0.12123,0.10042 0.16306,0.11286 0.046,0.009 0.15885,0.067 0.0836,0.0585 -0.13794,-0.0121 -0.91974,-0.0121 -1.09951,0.009 -0.12541,0.0121 -0.0627,-0.0461 0.046,-0.071 0.1087,-0.0243 0.16304,-0.0834 0.20485,-0.22146 0.0502,-0.15897 0.0252,-1.04936 0.0252,-1.04936 0,0 -0.95738,-0.009 -1.07861,0.0543 -0.0962,0.0501 -0.11707,0.14198 -0.12542,0.21752 -0.0124,0.0752 -0.0919,0.13804 -0.0794,0.0376 0.0209,-0.1799 0.0294,-0.82361 0.008,-0.96993 -0.0167,-0.12954 0.0124,-0.10861 0.0544,-0.0334 0.0502,0.0919 0.0334,0.14623 0.14632,0.19234 0.13379,0.0501 1.07443,0.0376 1.07443,0.0376 0,0 0.004,-0.88629 -0.0209,-1.02008 -0.0252,-0.12954 -0.11708,-0.21327 -0.22578,-0.22571 -0.0627,-0.003 -0.12123,-0.0628 -0.0375,-0.0501 0.2801,0.0303 0.83194,0.0182 1.04933,-0.003 0.11707,-0.0121 0.046,0.0501 -0.0376,0.071 -0.0919,0.0243 -0.18397,0.0752 -0.22159,0.21328 -0.0334,0.13803 -0.0294,1.00335 -0.0294,1.00335 0,0 0.82358,0.0121 0.96991,-0.0212 0.12541,-0.0243 0.19231,-0.10042 0.22158,-0.21752 0.0167,-0.0752 0.0752,-0.16716 0.0669,-0.0919"
       style="fill:#002151;fill-opacity:1;fill-rule:nonzero;stroke:none;stroke-width:1.07024729" />
    <path
       inkscape:connector-curvature="0"
       id="path435"
       d="m 97.55791,120.72518 c -0.158879,-0.0962 -0.898846,-0.37625 -1.191484,-0.42643 -0.129602,-0.0212 -0.0085,-0.0543 0.07524,-0.0501 0.104574,0.0121 0.196497,0.0243 0.275922,-0.0585 0.20487,-0.22147 1.011714,-2.25336 1.116233,-2.72997 0.1087,-0.49751 0.125417,-1.14133 -0.773423,-1.46322 -0.940643,-0.33447 -1.312723,0.17566 -1.82276,1.13712 -0.372083,0.69816 -0.961554,1.93982 -0.961554,2.08196 0,0.10861 0.0334,0.14622 0.09192,0.19658 0.08358,0.067 0.133789,0.1796 0.05018,0.11286 -0.204841,-0.16716 -0.898834,-0.45567 -1.032617,-0.49748 -0.07939,-0.0303 -0.01669,-0.0752 0.08777,-0.05 0.08358,0.0152 0.121229,-0.003 0.200684,-0.0586 0.20487,-0.14198 1.224931,-2.19484 1.362897,-2.41643 0.250833,-0.40971 0.63546,-0.79848 1.178942,-0.89465 0.589471,-0.10042 1.517578,0.20053 1.989997,0.86957 0.397157,0.56021 0.263392,1.1497 0.188124,1.4674 -0.08777,0.38881 -0.932293,2.2743 -0.936468,2.52513 0,0.10436 0.04184,0.13379 0.100266,0.1799 0.05437,0.0461 0.08358,0.1253 0,0.0752"
       style="fill:#002151;fill-opacity:1;fill-rule:nonzero;stroke:none;stroke-width:1.07024729" />
    <path
       inkscape:connector-curvature="0"
       id="path437"
       d="m 91.650647,118.21261 c 0,0 -0.175595,-1.9064 -0.22993,-2.56694 -0.06271,-0.76506 -0.255019,-2.24918 -0.255019,-2.24918 0,0 -1.496675,1.61791 -1.688977,1.81438 -0.196497,0.19659 -0.376269,0.393 -0.376269,0.52679 0.0042,0.13378 0.06271,0.15897 0.08777,0.20902 0.01669,0.0376 0.05018,0.16716 0.01244,0.12135 -0.07524,-0.0919 -0.238302,-0.26333 -0.409698,-0.41808 -0.146319,-0.13379 -0.296825,-0.25514 -0.397161,-0.32191 -0.100296,-0.067 0.02518,-0.0586 0.07943,-0.0212 0.05436,0.0376 0.09611,0.0543 0.209026,0.0461 0.142133,-0.0212 1.220748,-1.20401 1.617917,-1.62209 0.401341,-0.41806 1.300178,-1.4047 1.392155,-1.53012 0.06689,-0.0919 0.06689,-0.0543 0.07524,0.0461 0.0085,0.12135 0.163065,2.08198 0.200684,2.30773 0.02943,0.21327 0.129603,1.54685 0.142132,1.69733 0.01669,0.14623 0.05855,0.64801 0.05855,0.64801 0,0 0.689807,-0.9908 0.919749,-1.34617 0.229929,-0.35953 0.706523,-0.99499 0.706523,-1.1664 0,-0.1799 -0.09611,-0.2342 -0.154692,-0.28851 -0.02912,-0.0303 -0.05437,-0.11285 0.01668,-0.0501 0.158849,0.14229 0.648005,0.49748 0.94901,0.63546 0.146318,0.067 -0.07105,0.0243 -0.1087,0.009 -0.02518,-0.009 -0.158849,-0.0419 -0.275922,0 -0.154692,0.0543 -1.020072,1.37961 -1.191484,1.63463 -0.179781,0.25908 -0.702348,0.99083 -0.819412,1.18732 -0.12123,0.19659 -0.401344,0.61037 -0.459865,0.7107 -0.05855,0.10466 -0.08358,0.0962 -0.100297,-0.0121"
       style="fill:#002151;fill-opacity:1;fill-rule:nonzero;stroke:none;stroke-width:1.07024729" />
    <path
       inkscape:connector-curvature="0"
       id="path439"
       d="m 89.719184,110.22754 c 0.05018,0.0962 0.19231,0.30519 0.351168,0.50588 0.158878,0.19659 0.326094,0.37206 0.430613,0.46823 0.08358,0.0795 -0.0334,0.0501 -0.1087,-0.009 -0.08777,-0.067 -0.158878,-0.0795 -0.397166,0.0501 -0.280108,0.14622 -2.738325,2.21993 -2.830303,2.33697 -0.117043,0.14229 -0.104574,0.21328 -0.05855,0.31773 0.03768,0.0834 0.01244,0.15897 -0.02093,0.10466 -0.09611,-0.15047 -0.56021,-0.79848 -0.727434,-0.91974 -0.1087,-0.0837 0.0042,-0.0628 0.07105,-0.0212 0.07524,0.0419 0.100297,0.0376 0.179782,0.003 0.275921,-0.1171 3.056058,-2.36206 3.097863,-2.52091 0.04602,-0.16716 -0.01244,-0.19234 -0.02093,-0.2424 -0.0085,-0.0628 -0.01669,-0.17141 0.0334,-0.0752"
       style="fill:#002151;fill-opacity:1;fill-rule:nonzero;stroke:none;stroke-width:1.07024729" />
    <path
       inkscape:connector-curvature="0"
       id="path441"
       d="m 87.591232,93.509118 c -0.104574,0.162914 -0.42643,0.969897 -0.476593,1.204013 -0.02518,0.104665 -0.07524,-0.0091 -0.06271,-0.08768 0.02943,-0.133789 0.05018,-0.20478 -0.179782,-0.355376 -0.288451,-0.192341 -3.194012,-1.30434 -3.486662,-1.30434 -0.150505,0 -0.183938,0.0628 -0.238303,0.129542 -0.04602,0.05855 -0.146319,0.08768 -0.08358,-0.003 0.07105,-0.100417 0.455688,-1.057694 0.47659,-1.191483 0.02093,-0.129542 0.07105,0 0.05855,0.07524 -0.02093,0.108609 -0.01244,0.188094 0.05436,0.246646 0.275922,0.234207 3.4156,1.442316 3.649716,1.404697 0.158848,-0.03034 0.142132,-0.07948 0.196497,-0.129542 0.05855,-0.05855 0.167222,-0.104362 0.09192,0.01214"
       style="fill:#002151;fill-opacity:1;fill-rule:nonzero;stroke:none;stroke-width:1.07024729" />
    <path
       inkscape:connector-curvature="0"
       id="path443"
       d="m 86.500082,109.55446 0.928097,-1.24166 c 0,0 -1.630446,0.0877 -1.977443,0.11711 -0.35118,0.0303 -1.367081,0.071 -1.479946,0.2342 -0.07524,0.11286 -0.0042,0.23421 0.0042,0.27183 0.01244,0.0752 -0.0042,0.19234 -0.03756,0.10466 -0.02093,-0.0585 -0.146319,-0.3888 -0.246646,-0.61876 -0.09192,-0.20478 -0.209057,-0.45568 -0.242489,-0.50167 -0.05021,-0.0795 0.03768,-0.0585 0.08777,-0.003 0.05436,0.0585 0.07942,0.0962 0.2174,0.12954 0.229929,0.0586 1.74751,-0.0152 2.040157,-0.0243 0.296824,-0.0121 2.449862,-0.15472 2.629631,-0.13804 0.09623,0.009 0.183968,-0.0376 0.06689,0.14229 -0.06689,0.10041 -1.350353,1.78513 -1.450689,1.9231 -0.100296,0.13804 -1.295994,1.68478 -1.32108,1.87709 -0.01669,0.16716 0.0042,0.20903 0.01669,0.25089 0.01244,0.067 0.0042,0.24665 -0.02093,0.1881 -0.1087,-0.26758 -0.581113,-0.97827 -0.723251,-1.17058 -0.09192,-0.11711 0.02912,-0.0376 0.100296,-0.009 0.07524,0.0243 0.12123,0.009 0.200684,-0.0461 0.234116,-0.15897 1.078606,-1.30852 1.208212,-1.48412"
       style="fill:#002151;fill-opacity:1;fill-rule:nonzero;stroke:none;stroke-width:1.07024729" />
    <path
       inkscape:connector-curvature="0"
       id="path445"
       d="m 86.633862,103.42564 c 0.06271,0.17565 0.250832,0.94899 0.346997,1.28344 0.0334,0.12135 0.246645,0.90721 0.309365,1.041 0.0334,0.0628 -0.1087,-0.0376 -0.137976,-0.10466 -0.01668,-0.0461 -0.0085,-0.0752 -0.07942,-0.1253 -0.04183,-0.0303 -0.09611,-0.0376 -0.146318,-0.0419 -0.196498,-0.0243 -1.321081,0.34697 -1.885465,0.51841 -0.576939,0.1799 -1.680631,0.51004 -1.793512,0.6438 -0.117043,0.13803 -0.07942,0.19658 -0.07105,0.26333 0.0085,0.0628 -0.03768,0.28001 -0.06271,0.14228 -0.02093,-0.12529 -0.04602,-0.35534 -0.146319,-0.72325 -0.09192,-0.32188 -0.46406,-1.65553 -0.489147,-1.71405 -0.02912,-0.0752 -0.0334,-0.10042 0.02093,-0.1253 0.05437,-0.0182 0.405519,-0.13803 0.497493,-0.19234 0.117043,-0.071 0.07105,0.0303 0.0085,0.0962 -0.06271,0.0667 -0.09611,0.10042 -0.08358,0.30936 0.01244,0.24664 0.313549,1.16224 0.313549,1.16224 0,0 0.547656,-0.14623 0.727426,-0.20903 0.175594,-0.0667 0.77761,-0.2424 0.77761,-0.2424 0,0 -0.259206,-0.99083 -0.35118,-1.11206 -0.08777,-0.11286 -0.146319,-0.0919 -0.234117,-0.0834 -0.06689,0.009 -0.179781,-0.0419 -0.09611,-0.0585 0.188124,-0.0376 0.698165,-0.17566 0.944825,-0.29276 0.104574,-0.0501 0,0.0795 -0.05021,0.10861 -0.05018,0.0303 -0.125416,0.0752 -0.129602,0.2424 -0.0085,0.14228 0.08777,0.47242 0.133789,0.59365 0.03768,0.10861 0.150505,0.49332 0.150505,0.49332 0,0 0.999173,-0.28427 1.162214,-0.36372 0.158879,-0.0795 0.296824,-0.0837 0.259206,-0.4139 -0.02912,-0.27577 -0.209027,-0.9239 -0.351169,-1.13296 -0.1087,-0.15897 -0.196497,-0.21327 -0.234116,-0.2424 -0.03768,-0.0334 -0.167221,-0.14228 -0.08777,-0.1171 0.117074,0.0376 0.614557,0.21327 0.673088,0.25908 0.05436,0.0376 0.07524,0.0585 0.104574,0.13804"
       style="fill:#002151;fill-opacity:1;fill-rule:nonzero;stroke:none;stroke-width:1.07024729" />
    <path
       inkscape:connector-curvature="0"
       id="path447"
       d="m 91.529411,87.735638 c -0.12126,0.125295 -0.994998,1.07444 -1.241659,1.350362 -0.07942,0.09617 -0.275922,0.317697 -0.334452,0.384591 -0.04184,0.0543 -0.06271,-0.05006 -0.02912,-0.112856 0.03756,-0.06705 0.07524,-0.09192 0.02912,-0.246646 -0.05855,-0.200532 -1.078606,-1.032605 -1.525939,-1.417226 -0.47659,-0.413898 -1.245831,-1.116246 -1.421425,-1.141336 -0.158849,-0.02124 -0.196498,0.0091 -0.271735,0.04611 -0.05437,0.02427 -0.192311,0.08373 -0.0962,-0.0091 0.09192,-0.09192 0.238303,-0.250892 0.44733,-0.480761 0.229929,-0.242399 1.166409,-1.216573 1.204028,-1.266752 0.04602,-0.0628 0.07105,-0.0628 0.112886,-0.02124 0.04602,0.04611 0.280109,0.292759 0.376258,0.347003 0.137976,0.08768 0.01244,0.07524 -0.06271,0.05855 -0.06271,-0.01214 -0.100266,-0.03762 -0.250832,0.05006 -0.24249,0.142284 -0.815217,0.827764 -0.815217,0.827764 l 1.116224,1.032636 c 0,0 0.777611,-0.723282 0.794327,-0.873757 0.0085,-0.129542 -0.0085,-0.162914 -0.01669,-0.188094 -0.02093,-0.0628 -0.01244,-0.163217 0.03756,-0.09192 0.142163,0.204779 0.514224,0.535127 0.610386,0.602022 0.09611,0.06705 -0.01669,0.07099 -0.07105,0.04611 -0.07939,-0.03762 -0.112887,-0.09192 -0.263392,-0.02124 -0.150505,0.07524 -0.77761,0.806862 -0.77761,0.806862 0,0 0.79851,0.685633 0.949009,0.794333 0.192311,0.142284 0.330278,0.175655 0.526766,-0.003 0.20487,-0.188094 0.652176,-0.618768 0.752512,-0.848698 0.07939,-0.175655 0.05018,-0.30095 0.05437,-0.346972 0.0085,-0.06705 0.04602,-0.154722 0.05855,-0.09617 0.01244,0.0543 0.175595,0.564403 0.188124,0.643827 0.0085,0.06705 -0.0085,0.100418 -0.07939,0.175656"
       style="fill:#002151;fill-opacity:1;fill-rule:nonzero;stroke:none;stroke-width:1.07024729" />
    <path
       style="clip-rule:nonzero;fill:#002151;fill-opacity:1;fill-rule:nonzero;stroke:none;stroke-width:1.07024729"
       d="m 83.707401,100.23997 c -0.602016,-0.35535 -1.174759,-0.0461 -1.36707,0.27182 -0.188124,0.31357 -0.08777,0.90303 -0.08777,0.90303 0,0 0.777599,-0.0501 0.923923,-0.0628 0.146319,-0.009 0.953184,-0.0667 0.953184,-0.0667 0,0 0.07942,-0.74834 -0.422246,-1.04516 m 2.617089,1.04935 c 0.0085,0.0919 0.02943,0.53928 0.05855,0.73997 0.01669,0.11285 -0.05021,-0.0303 -0.0669,-0.0834 -0.01668,-0.0543 -0.02518,-0.11286 -0.117043,-0.16292 -0.158878,-0.0795 -1.241659,0.009 -1.872935,0.0795 -0.58111,0.0628 -1.914747,0.12954 -2.073604,0.27577 -0.117074,0.10861 -0.0962,0.23421 -0.100297,0.28002 0,0.0586 -0.1087,0.25908 -0.104574,0.1086 0.0042,-0.0919 0,-0.49332 -0.02093,-0.63126 -0.02093,-0.15048 -0.129603,-1.11625 -0.07108,-1.45069 0.06689,-0.38047 0.438974,-0.907221 1.09115,-0.936466 0.677275,-0.03034 1.00754,0.539286 1.078615,0.677256 0.06271,-0.0795 0.09611,-0.12529 0.280109,-0.259081 0.221586,-0.167161 1.668077,-1.020076 1.776771,-1.283468 0.07524,-0.167161 0.03768,-0.246646 0.03768,-0.284264 -0.01669,-0.171408 0.02093,-0.288512 0.104453,0 0.04602,0.171408 0.07942,0.65217 -0.125416,0.944807 -0.259206,0.359533 -1.074432,0.848666 -1.237473,0.957366 -0.188124,0.12954 -0.627102,0.36791 -0.622915,0.6313 0,0.22996 0.0334,0.37206 0.0334,0.37206 0,0 0.643818,-0.067 0.815217,-0.0837 0.175594,-0.0212 0.85286,-0.0628 0.944835,-0.16291 0.09192,-0.10467 0.07105,-0.13804 0.07942,-0.19235 0.0085,-0.05 0.112856,-0.26333 0.104452,0.0182 -0.0042,0.10041 0,0.35116 0.0085,0.44733"
       id="path449"
       inkscape:connector-curvature="0" />
    <path
       inkscape:connector-curvature="0"
       id="path453"
       d="m 102.34894,87.100184 c -0.75252,-0.890473 -0.86958,-1.868743 -0.86958,-2.382967 0,-0.660543 0.30101,-1.082814 0.58947,-1.488338 l 0.2174,-0.267579 c 0.35953,-0.42224 0.85285,-0.999173 0.85285,-2.002532 0,-0.877943 -0.1003,-1.254192 -0.15888,-1.396354 -0.0334,0.430613 -0.28429,2.224119 -2.14885,3.842029 -0.53094,0.464046 -1.425606,1.237476 -1.425606,2.203216 0,1.417227 0.919746,2.587808 1.204026,2.918094 -0.24667,-0.622924 -0.32609,-1.233289 -0.32609,-1.730797 0,-0.698162 0.14216,-1.187297 0.14632,-1.19567 l 0.0167,-0.0543 0.0291,0.05006 c 0.648,1.091126 1.60955,1.433942 1.87293,1.505024"
       style="fill:#002151;fill-opacity:1;fill-rule:nonzero;stroke:none;stroke-width:1.07024729" />
    <path
       style="clip-rule:nonzero;fill:#002151;fill-opacity:1;fill-rule:nonzero;stroke:none;stroke-width:1.07024729"
       d="m 102.62486,82.952957 c 0.46406,-0.179903 2.14886,-0.915562 2.14886,-2.094486 0,-0.923935 -0.67309,-1.747513 -0.90302,-2.002562 0.0627,0.20478 0.18812,0.681446 0.18812,1.254222 0,1.375421 -1.10369,2.529286 -1.43396,2.842826"
       id="path455"
       inkscape:connector-curvature="0" />
    <path
       inkscape:connector-curvature="0"
       id="path459"
       d="m 108.93765,80.69122 c -0.45151,0.656386 -2.11124,1.312743 -2.18649,1.341989 l -0.0291,-0.04187 c 0.94064,-0.957368 1.19984,-2.441519 1.25419,-2.847013 -1.32944,2.094485 -2.1405,2.454018 -3.07697,2.863729 l -0.41388,0.183846 c -1.12041,0.535097 -2.41223,1.291811 -2.41223,2.487481 0,1.571918 0.5393,2.232461 0.72325,2.408056 -0.12123,-0.418054 -0.15888,-0.77343 -0.15888,-1.053538 0,-0.455672 0.0962,-0.714878 0.0962,-0.719064 l 0.0334,-0.09192 0.0167,0.09617 c 0.12542,0.86957 1.1664,1.684805 1.39634,1.852027 -0.008,-0.09617 -0.0294,-0.296703 -0.0294,-0.56856 0,-0.877943 0.20487,-2.433145 1.56776,-3.018451 2.46242,-1.053508 3.0728,-2.412213 3.21912,-2.893005"
       style="fill:#002151;fill-opacity:1;fill-rule:nonzero;stroke:none;stroke-width:1.07024729" />
    <path
       inkscape:connector-curvature="0"
       id="path461"
       d="m 106.89749,85.565884 c 0,-1.622097 0.30936,-2.245021 0.47659,-2.462421 -2.64635,1.199856 -2.93481,3.386326 -2.93481,4.255926 0,0.104362 0.004,0.183847 0.008,0.246646 0.11708,-0.334443 0.51841,-1.3169 1.48832,-2.136321 l 0.0167,-0.01214 0.0167,0.0091 c 0.004,0.003 0.009,0.003 0.009,0.03337 0,0.08343 -0.0627,0.43477 -0.40972,1.935638 0.24252,-0.15897 1.32948,-0.919749 1.32948,-1.868743"
       style="fill:#002151;fill-opacity:1;fill-rule:nonzero;stroke:none;stroke-width:1.07024729" />
    <path
       inkscape:connector-curvature="0"
       id="path463"
       d="m 109.22194,85.407006 c 0,-0.476576 -0.12961,-0.861197 -0.18816,-1.011703 -0.046,0.171408 -0.18812,0.589462 -0.63546,1.007516 0,0 0,0 -0.004,0 l -0.0334,-0.03337 c 0,-0.003 0.27593,-0.317726 0.27593,-1.141335 0,-0.234207 -0.0252,-0.514224 -0.0836,-0.840294 -0.0209,-0.121351 -0.0294,-0.242398 -0.0294,-0.363719 0,-0.648014 0.28845,-1.183141 0.42643,-1.404697 -0.28008,0.20478 -1.05352,0.865383 -1.37543,2.073583 -0.24249,0.903033 -0.30101,1.279281 -0.34699,1.555203 -0.0291,0.188093 -0.0544,0.3261 -0.12123,0.547686 -0.15469,0.522568 -0.48495,1.463219 -0.76088,1.906362 0.1965,-0.112856 0.72326,-0.476575 1.12042,-1.275094 l 0.0334,-0.07099 0.0124,0.07949 c 0.004,0 0.0334,0.192341 0.0334,0.476606 0,0.359532 -0.0544,0.865383 -0.26339,1.329429 0.35534,-0.284264 1.93981,-1.613724 1.93981,-2.834483"
       style="fill:#002151;fill-opacity:1;fill-rule:nonzero;stroke:none;stroke-width:1.07024729" />
    <path
       inkscape:connector-curvature="0"
       id="path465"
       d="m 112.03551,82.773206 c -0.89048,-0.66473 -1.86039,-0.355376 -1.86875,-0.351189 l -0.0794,0.02427 0.0502,-0.06674 c 0.45152,-0.568559 1.02845,-0.915562 1.21658,-1.020075 -0.28011,-0.04187 -1.39216,-0.142284 -1.944,0.648013 -0.35535,0.510038 -0.41389,1.283468 -0.41389,1.73914 0,0.125295 0.004,0.221466 0.008,0.284265 0.54349,-0.944838 0.60621,-0.940652 0.62293,-0.940652 l 0.0252,0.01213 0.004,0.01517 c 0.0209,0.100418 0.0291,0.225713 0.0291,0.363719 0,0.426427 -0.0794,0.965741 -0.12542,1.229103 0.96155,-1.843654 2.14885,-1.948167 2.47494,-1.939825"
       style="fill:#002151;fill-opacity:1;fill-rule:nonzero;stroke:none;stroke-width:1.07024729" />
    <path
       inkscape:connector-curvature="0"
       id="path467"
       d="m 105.59731,113.13729 c -0.26339,0.36787 -0.30101,0.38043 -0.3888,0.38043 -0.0919,0 -0.0919,-0.40133 -0.0377,-0.60617 0.0586,-0.20903 0.20903,-0.42643 0.40134,-0.4139 0.16304,0.009 0.28845,0.27577 0.0252,0.63964 m -1.50086,2.43314 0.10027,-4.45239 c 0.0836,0.12954 0.15469,0.23815 0.18397,0.30095 0.1087,0.22996 0.18393,0.52675 0.18393,0.52675 0,0 0.15051,0.15048 0.18397,0.36791 0.0334,0.21752 0.13795,0.95318 0.17141,1.12459 0.0334,0.17141 0.0334,0.30938 0.13798,0.30938 0.59365,0 0.9281,-0.98664 0.80268,-1.29602 -0.12542,-0.30936 -0.45987,-0.68564 -0.45987,-0.68564 0,0 -0.32191,-1.02007 -0.37626,-1.14549 -0.0585,-0.12954 -0.28845,-0.2424 -0.35536,-0.28851 -0.0377,-0.0212 -0.24249,-0.22996 -0.44733,-0.43061 l 0.0291,-1.24582 c -0.0752,0.009 -0.14213,0 -0.1965,0 -0.90721,0 -1.4047,-0.56441 -1.4256,-0.58531 l 0.2174,7.50009 z m 0,0"
       style="fill:#002151;fill-opacity:1;fill-rule:nonzero;stroke:none;stroke-width:1.07024729" />
    <path
       inkscape:connector-curvature="0"
       id="path469"
       d="m 112.42013,100.77091 c 0.8654,0 2.1196,0.43061 2.1196,0.43061 0,0 -1.6012,0.20478 -2.1196,0.20478 -0.51422,0 -1.37543,-0.12954 -1.37543,-0.12954 0,0 0.70653,-0.50585 1.37543,-0.50585 m -5.09621,0.8027 c 0,0 0.98245,0.22571 1.4256,0.52676 0.94065,0.63545 1.51758,1.85621 1.51758,1.85621 0,0 -0.95737,-0.51423 -1.65136,-1.04517 -0.69399,-0.52259 -1.29182,-1.30018 -1.29182,-1.30018 z m -5.68569,1.43813 c 0,0 -0.40553,-0.69816 -0.6062,-1.43813 -0.15888,-0.58112 -0.39716,-1.985814 -0.39716,-1.985814 0,0 0.92811,1.337804 1.09115,1.780944 0.27174,0.75671 -0.0878,1.643 -0.0878,1.643 m 1.46323,1.96073 c 0.5393,-0.52676 2.18648,-1.04098 2.18648,-1.04098 0,0 -1.31272,1.12459 -1.83949,1.59282 -0.52675,0.46405 -1.19566,1.26675 -1.19566,1.26675 0,0 -0.1087,-0.88631 0.84867,-1.81859 m 1.48831,1.90639 c 0.51841,-0.0543 1.96073,0.26758 1.96073,0.26758 0,0 -1.51339,0.36372 -2.28682,0.41805 -0.77342,0.0501 -1.45069,-0.0212 -1.45069,-0.0212 0,0 0.35954,-0.52257 1.77678,-0.6647 m -6.488371,2.5669 c 0,0 0.183938,-1.45487 0.593655,-1.96491 0.597829,-0.73997 1.233289,-0.85286 1.233289,-0.85286 z m 0.238303,-4.30607 c -0.551852,-0.19235 -1.354537,-0.73163 -1.354537,-0.73163 0,0 1.459047,-0.16716 1.998355,0.0962 0.932281,0.4557 1.06606,1.14968 1.06606,1.14968 0,0 -1.162209,-0.32188 -1.709878,-0.51419 m 7.391398,-6.630525 c 0,0 -0.42643,-0.585305 -0.43897,-1.542673 -0.0124,-0.957367 0.54766,-1.985816 0.54766,-1.985816 0,0 -0.0209,1.124589 0.0124,1.760073 0.0376,0.631268 -0.12123,1.768416 -0.12123,1.768416 m 2.08614,-3.683181 c 0.43061,-0.673072 1.99417,-1.484121 1.99417,-1.484121 0,0 -0.86957,0.873757 -1.48413,1.588665 -0.6062,0.719065 -1.0159,1.2082 -1.0159,1.2082 l -0.0124,0.02427 c 0,0 0.0836,-0.668916 0.51841,-1.337802 m 1.80604,1.003329 c 0.50168,-0.167161 2.05688,-0.225713 2.05688,-0.225713 0,0 -1.35036,0.476606 -1.9022,0.656356 -0.55185,0.179903 -1.52176,0.321914 -1.52176,0.321914 0,0 0.62292,-0.505851 1.36708,-0.752527 m -1.9022,2.332849 c 0.50168,-0.342846 2.0318,-0.907219 2.0318,-0.907219 0,0 -1.17058,1.040978 -1.76005,1.459062 -0.5853,0.418054 -1.29182,0.752497 -1.29182,0.752497 0,0 0.22993,-0.765057 1.02007,-1.30434 m 3.00172,0.576902 c 0.56438,-0.923905 1.6639,-1.471592 1.6639,-1.471592 0,0 -0.68145,1.145522 -1.06607,1.672276 -0.38045,0.526754 -0.93229,1.17477 -0.93229,1.17477 0,0 -0.22993,-0.455705 0.33446,-1.375454 m 3.20655,-2.93481 c 0.57694,-0.96571 1.92728,-1.505024 1.92728,-1.505024 0,0 -0.98244,1.30434 -1.29182,1.722424 -0.31355,0.418054 -1.11205,1.605381 -1.11205,1.605381 0,0 -0.0961,-0.852854 0.47659,-1.822781 m 1.72244,1.643 c 0.86121,-0.20478 2.4415,-0.13379 2.24919,-0.08343 -0.18813,0.04611 -1.32527,0.535127 -2.12795,0.752527 -0.80269,0.213274 -1.73497,0.276073 -1.73497,0.276073 l -0.0124,-0.02427 c 0,0 0.76505,-0.719064 1.62627,-0.919748 m -1.66809,1.187297 c 0.19231,0.05855 1.05353,0.296702 1.48832,0.275769 1.13295,-0.05855 1.98163,-0.928091 2.23247,-1.132962 0.25502,-0.209027 0.96155,-0.572745 0.96155,-0.572745 0,0 -0.61874,-0.01214 -1.39634,-0.07949 -0.7776,-0.07099 -1.55938,0.0543 -2.14049,0.250893 -0.5853,0.192341 -0.92811,0.572745 -1.04099,0.664729 -0.11704,0.09192 -0.20902,0.225713 -0.43897,0.284265 -0.22574,0.05855 -0.42224,0.104665 -0.42224,0.104665 0.11288,-0.309384 0.2174,-0.459859 0.30937,-0.526754 0.0919,-0.07099 0.59365,-0.401338 1.11205,-0.953211 0.51422,-0.547656 1.29182,-1.889645 1.35036,-2.107046 0.0585,-0.217218 0.52675,-1.270907 0.52675,-1.270907 0,0 -0.57274,0.413897 -1.20403,0.744154 -0.62709,0.334473 -1.32944,0.940651 -1.63463,1.479965 -0.30937,0.535127 -0.42643,1.187297 -0.43897,1.718237 -0.0124,0.526754 -0.2174,0.974083 -0.66472,1.50921 -0.34281,0.413898 -1.05352,0.999173 -1.19149,1.112053 -0.0377,0.0334 -0.35118,0.26333 -0.69816,0.35535 -0.2174,0.0585 -0.48078,0.0243 -0.48078,0.0243 0,0 0.24249,-0.30936 0.3888,-0.35535 0.15051,-0.0461 0.50586,-0.162907 1.07861,-0.677252 0.57275,-0.514225 0.91556,-1.822781 0.96155,-2.040181 0.046,-0.217522 0.25083,-0.8821 0.25083,-0.8821 0,0 -0.44315,0.43477 -0.96991,0.769243 -0.53094,0.330257 -1.14968,0.936465 -1.52594,1.567732 -0.38044,0.631298 -0.19649,1.137148 -0.19649,1.224938 0,0.0919 -0.0334,0.15048 -0.17979,0.30095 -0.1505,0.14623 -0.38044,0.18385 -0.50586,0.21753 -0.12542,0.0334 -0.65218,0.23815 -1.19148,0.23815 -0.5393,0 -1.25002,-0.2509 -1.40888,-0.26333 -0.16306,-0.009 -0.41388,0.13803 -0.51422,0.15047 -0.10457,0.009 -0.18397,-0.0334 -0.28845,-0.0334 -0.10457,0 -0.42226,0.009 -0.42226,0.009 0.0794,-0.15897 0.0919,-0.44314 0.10027,-0.52675 0.0124,-0.0795 0.0377,-0.19234 0.15051,-0.217521 0.11288,-0.02124 0.44733,-0.238454 0.56021,-0.296703 0.11704,-0.05855 0.20902,-0.06674 0.33445,-0.06674 0.0919,0 0.73161,-0.02427 1.25837,-0.347002 0.94064,-0.56856 1.45486,-1.454846 1.60537,-1.672246 0.14632,-0.217521 0.89466,-0.765056 0.89466,-0.765056 0,0 -0.58529,0.158969 -1.25001,0.355345 -0.66473,0.192341 -1.63882,0.65217 -1.98164,0.961554 -0.34281,0.309384 -0.52675,0.606178 -0.65217,0.811049 -0.12961,0.209027 -0.24249,0.493321 -0.347,0.572746 -0.1003,0.08373 -0.43479,0.25514 -0.43479,0.209026 0,-0.04611 0.12542,-0.288511 0.20487,-0.426427 0.0835,-0.138036 0.33438,-0.535096 0.49323,-0.777586 0.16307,-0.242398 0.25502,-0.493321 0.30101,-0.618737 0.046,-0.125295 0.15888,-0.434801 0.29683,-0.597835 0.50168,-0.581119 0.84867,-0.581119 1.12459,-0.606178 0.27174,-0.02124 0.54767,0.03762 1.41725,-0.06705 0.87374,-0.104665 1.53429,-0.585305 1.71825,-0.689819 0.18393,-0.100418 0.99917,-0.698162 0.99917,-0.698162 0,0 -0.79014,0.138037 -1.04516,0.171408 -0.25083,0.03762 -1.22493,0.04611 -1.78514,0.183847 -0.56021,0.138037 -1.05353,0.480762 -1.52594,0.790146 -0.46823,0.309384 -0.97409,0.74834 -0.97409,0.74834 0,0 0,-0.30095 0.0377,-0.438956 0.0334,-0.138037 0.0794,-0.330287 0.30936,-0.455703 0.22993,-0.125295 0.88212,-0.518411 1.30436,-0.940651 0.42643,-0.422241 0.96156,-1.3169 1.03262,-1.525927 0.0669,-0.204779 0.48078,-1.028448 0.48078,-1.028448 0,0 -0.1965,0.204779 -0.91557,0.572745 -0.72325,0.367906 -1.37543,0.86957 -1.76423,1.375452 -0.39298,0.501664 -0.44733,0.948994 -0.45987,1.145491 -0.0124,0.192342 -0.046,0.44733 -0.0919,0.547657 -0.046,0.104362 -0.10027,0.162913 -0.13795,0.585305 -0.0334,0.376249 -0.0794,0.45986 -0.14632,0.65217 -0.071,0.196589 -0.071,0.27577 -0.1505,0.413898 -0.0794,0.138037 -0.071,0.06705 -0.15051,0.263331 -0.0794,0.196589 -0.53931,0.769243 -0.53931,0.769243 0,0 -0.14631,-0.183846 0.0836,-0.677259 0.33027,-0.714878 0.45569,-1.295997 0.46824,-1.672245 0.0124,-0.380465 -0.15888,-1.124619 -0.2634,-1.400541 -0.10445,-0.271826 -0.44732,-1.245818 -0.44732,-1.245818 0,0 -0.0334,0.447329 -0.1965,0.903002 -0.15888,0.459889 -0.52258,1.387981 -0.52258,2.027621 0,0.643827 0.33026,1.387981 0.48913,1.592822 0.16304,0.204779 0.1965,0.380435 0.17141,0.631297 -0.0209,0.250893 -0.1087,0.342816 -0.2383,0.547657 -0.0794,0.129542 -0.0794,0.188088 -0.16304,0.539308 -0.15888,0.68979 -0.50168,0.89466 -0.79851,1.13296 -0.0376,0.0303 -0.0794,0.0628 -0.1296,0.0962 l 0.15888,-6.28351 c 0.071,-0.953211 0.16722,-2.867946 1.0368,-4.126324 0.1087,-0.15897 0.16722,-0.234207 0.16722,-0.234207 0.56857,-0.790146 1.42142,-1.162208 2.15722,-1.237476 v -0.514224 c 0,0 -3.95073,-0.0091 -4.71997,-0.0091 h -0.0124 c -0.76507,0 -4.322808,0.0091 -4.322808,0.0091 v 0.514224 c 0.735796,0.07524 1.588648,0.44733 2.157228,1.237476 0.67307,0.936464 1.09114,1.492494 1.21238,4.46911 l 0.2174,7.182361 c -0.50585,0.28426 -0.59365,0.90303 -0.59365,0.90303 -0.0919,-0.15897 -0.12541,-0.35534 -0.0585,-0.46823 0.071,-0.1171 0.30937,-0.75672 0.1965,-1.37545 -0.11286,-0.61874 -0.80268,-1.651341 -1.02007,-1.902174 -0.2174,-0.250893 -0.61875,-0.86957 -0.61875,-0.86957 0,0 0.0124,0.572746 -0.0209,1.028419 -0.0334,0.459885 -0.1965,1.103685 0.0794,1.902205 0.27593,0.80267 0.86122,1.19148 0.96156,1.27093 0.10457,0.0837 0.2174,0.22147 0.26339,0.45986 0.046,0.2424 0.0124,0.29671 -0.0209,0.46824 -0.0376,0.17565 0.008,0.26757 -0.0586,0.50585 -0.0502,0.16716 -0.18394,0.26333 -0.20903,0.41389 -0.0502,0.33863 -0.13379,0.57275 -0.17141,0.69817 -0.0334,0.12529 -0.11289,0.14622 -0.2174,0.31772 -0.1003,0.17566 -0.0794,0.28851 -0.0794,0.28851 0,0 -0.52677,-0.44733 -0.59366,-0.60617 -0.434783,-1.01592 -1.137135,-1.23748 -1.580281,-1.34199 -0.447329,-0.10042 -1.149681,-0.0671 -1.492491,-0.0334 -0.330266,0.0334 -1.1873,-0.13804 -1.241656,-0.14623 0.04602,0.009 0.426427,0.10042 0.91139,0.62711 0.514222,0.56019 1.120409,0.96152 1.592828,1.14549 0.468232,0.18385 1.028442,0.0334 1.204028,-0.0121 0.171408,-0.0419 0.296824,-0.11286 0.443142,-0.0543 0.15051,0.0543 0.32191,0.28427 0.32191,0.28427 0,0 -0.26339,0.15047 -0.45569,0.24239 -0.698161,0.3261 -1.229114,0.5895 -1.638813,1.27094 -0.175594,0.29276 -0.413888,1.3169 -0.447332,1.55939 -0.03756,0.23815 -0.242459,0.87791 -0.242459,0.87791 0,0 0.388799,-0.33025 0.710709,-0.54765 0.321908,-0.21752 0.79014,-0.48076 1.308548,-1.13296 0.514217,-0.65217 0.581107,-1.66391 0.606187,-1.86875 0.0209,-0.20478 0.17141,-0.26333 0.22993,-0.26333 0.0544,0 0.25083,0.13804 0.2383,0.30939 -0.0124,0.1714 0.0794,0.35534 0.15051,0.45985 0.0669,0.10042 0.22577,0.23816 0.3679,0.4348 0.13379,0.19235 0.2383,0.62712 0.33026,0.81105 0.0919,0.18385 0.13798,0.16292 0.27592,0.41387 0.13379,0.25089 0.11286,0.38881 0.22575,0.58531 0.11707,0.19234 0.17559,0.1714 0.17559,0.1714 l -0.071,-1.21657 c 0,0 -0.046,-0.0212 -0.0919,-0.0795 -0.046,-0.0586 -0.11289,-0.20478 -0.11289,-0.20478 0,0 0.20484,-0.13804 0.34282,-0.20478 0.13795,-0.071 0.2174,-0.0376 0.30937,0.0212 0.0919,0.0586 0.74415,0.58528 1.45486,0.58528 0.71072,0 2.16558,-0.78177 2.42896,-0.91556 0.26339,-0.13804 0.94901,-0.33445 0.94901,-0.33445 0,0 -0.68563,-0.0667 -1.05352,-0.15047 -0.36372,-0.0795 -1.42979,-0.28427 -1.68062,-0.28427 -0.25502,0 -0.47242,0.0586 -0.47242,0.0586 l 0.0291,-0.36791 c 0,0 -0.30102,0.25514 -0.40552,0.33447 -0.10458,0.0795 -0.36373,0.22572 -0.7567,0.37625 -0.28429,0.10861 -0.55185,0.15897 -0.55185,0.15897 0,0 -0.046,-0.0461 -0.0794,0.1253 -0.0334,0.1714 -0.0585,0.15047 -0.25083,0.19659 -0.19649,0.0461 -0.36789,0.12529 -0.36789,0.12529 0,0 0.15884,-0.41387 0.18393,-0.48076 0.0209,-0.067 0.0586,-0.13804 0.29683,-0.18385 0.24249,-0.0461 0.94064,-0.20478 1.63882,-0.83611 0.69816,-0.63129 1.0577,-1.43397 1.17894,-1.7057 0.20068,-0.44318 0.81523,-1.00755 0.81523,-1.00755 0,0 -0.52677,0.20478 -1.52177,0.54766 -0.0502,0.0152 -0.0961,0.0334 -0.14213,0.05 l 0.0377,-1.3169 -0.004,0.003 0.004,-0.0962 c -0.0294,0.0121 -0.0502,0.0212 -0.071,0.0303 -0.14632,0.071 -0.58111,0.19658 -0.75252,0.27607 -0.1756,0.0795 -0.31354,0.26333 -0.44732,0.33025 -0.0836,0.0419 -0.38463,0.13804 -0.64801,0.40134 l 0.0124,0.21752 h -0.004 l 0.046,1.40051 c -0.38044,0.49751 -0.40553,0.89469 -0.45152,1.15806 -0.046,0.26333 -0.0794,0.3888 -0.11289,0.52675 -0.0334,0.13804 -0.1714,0.4557 -0.1714,0.4557 0,0 -0.1965,-0.37625 -0.39299,-0.58112 -0.19231,-0.20902 -0.12541,-0.38043 -0.10026,-0.53928 0.0209,-0.16291 0.11288,-0.33447 0.2174,-0.59783 0.10445,-0.26334 0.2383,-0.76506 0.32191,-0.92813 0.0794,-0.15897 0.046,0.15048 0.2174,-0.79014 0.1714,-0.94065 0.9281,-1.15802 1.06607,-1.22492 0.13379,-0.071 0.27173,-0.25089 0.44732,-0.33447 0.17138,-0.0795 0.60618,-0.20478 0.7525,-0.27183 0.15051,-0.071 0.63546,-0.27182 0.86122,-0.57274 0.22159,-0.30095 0.35535,-0.393 0.50168,-0.47242 0.1505,-0.0795 0.39297,-0.0877 0.76924,-0.11286 0.37625,-0.0212 0.45986,0.27607 0.5393,0.37628 0.0794,0.10467 0.0794,0.20903 0.0919,0.34282 0.008,0.13803 -0.0919,0.84866 0.67309,1.51336 0.76924,0.66473 1.70988,0.72325 2.0527,0.81524 0.34281,0.0919 1.20403,0.44733 1.20403,0.44733 0,0 -0.15051,-0.0585 -0.7358,-0.96156 -0.5853,-0.90718 -1.14551,-1.4465 -1.49667,-1.64715 -0.35118,-0.20478 -0.99919,-0.34701 -1.14969,-0.38462 -0.14631,-0.0334 -0.28429,-0.0795 -0.37625,-0.15897 -0.0919,-0.0795 -0.28845,-0.36372 -0.28845,-0.36372 0,0 0.0836,-0.0121 0.1505,0 0.0669,0.009 0.37626,0.21327 1.1455,0.21327 0.76924,0 1.17895,-0.25908 1.32945,-0.31773 0.14632,-0.0585 0.29682,-0.0461 0.44733,0.0461 0.14632,0.0919 0.33027,0.21752 0.69817,0.44733 0.36789,0.22571 1.03262,0.58109 1.7057,0.58109 0.67727,0 1.84367,-0.3177 2.15304,-0.46824 0.30937,-0.14622 0.89466,-0.27577 0.89466,-0.27577 0,0 -0.57275,-0.10041 -0.89466,-0.1714 -0.31772,-0.0671 -1.3629,-0.45571 -2.09451,-0.45571 -0.73161,0 -1.26256,0.34282 -1.32944,0.38881 -0.0669,0.0461 -0.15885,0.18385 -0.46824,0.0919 -0.30937,-0.0919 -0.35535,-0.30935 -0.35535,-0.30935 0.86957,-0.12529 0.949,-0.26333 1.29181,-0.48079 0.347,-0.21752 0.63129,-0.631264 0.84868,-0.836105 0.14632,-0.142283 0.26755,-0.317727 0.5853,-0.610394 0.43478,-0.401338 0.89465,-0.171409 0.89465,-0.171409"
       style="fill:#002151;fill-opacity:1;fill-rule:nonzero;stroke:none;stroke-width:1.07024729" />
    <path
       inkscape:connector-curvature="0"
       id="path471"
       d="m 109.94936,94.412151 c 0,0 -0.31355,0.129542 -0.31355,0.593648 0,0.468232 0.41389,0.33863 0.41389,0.33863 0,0 0.36372,-0.07949 0.36372,-0.543501 0,-0.468232 -0.46406,-0.388777 -0.46406,-0.388777"
       style="fill:#002151;fill-opacity:1;fill-rule:nonzero;stroke:none;stroke-width:1.07024729" />
    <path
       inkscape:connector-curvature="0"
       id="path473"
       d="m 115.62251,96.126201 c 0,0 -0.31354,0.129542 -0.31354,0.597835 0,0.468233 0.41387,0.33863 0.41387,0.33863 0,0 0.36373,-0.07948 0.36373,-0.547656 0,-0.464046 -0.46406,-0.388809 -0.46406,-0.388809"
       style="fill:#002151;fill-opacity:1;fill-rule:nonzero;stroke:none;stroke-width:1.07024729" />
    <path
       inkscape:connector-curvature="0"
       id="path475"
       d="m 106.01537,101.51925 c 0,0 -0.31355,0.12954 -0.31355,0.59783 0,0.46405 0.41807,0.33444 0.41807,0.33444 0,0 0.36371,-0.0752 0.36371,-0.54347 0,-0.46407 -0.46823,-0.3888 -0.46823,-0.3888"
       style="fill:#002151;fill-opacity:1;fill-rule:nonzero;stroke:none;stroke-width:1.07024729" />
    <path
       inkscape:connector-curvature="0"
       id="path477"
       d="m 112.7295,99.717398 c -0.14213,0.443142 0.29264,0.447332 0.29264,0.447332 0,0 0.36789,0.0376 0.51003,-0.409713 0.14632,-0.443143 -0.32191,-0.510038 -0.32191,-0.510038 0,0 -0.33863,0.02427 -0.48077,0.472419"
       style="fill:#002151;fill-opacity:1;fill-rule:nonzero;stroke:none;stroke-width:1.07024729" />
    <path
       inkscape:connector-curvature="0"
       id="path479"
       d="m 109.84067,101.51506 c 0,0 -0.30937,0.12954 -0.30937,0.59783 0,0.46824 0.41389,0.33445 0.41389,0.33445 0,0 0.36371,-0.0752 0.36371,-0.54347 0,-0.46823 -0.46823,-0.38881 -0.46823,-0.38881"
       style="fill:#002151;fill-opacity:1;fill-rule:nonzero;stroke:none;stroke-width:1.07024729" />
    <path
       inkscape:connector-curvature="0"
       id="path481"
       d="m 105.2754,105.43236 c 0,0 -0.30938,0.12954 -0.30938,0.59362 0,0.46826 0.41389,0.34284 0.41389,0.34284 0,0 0.36372,-0.0795 0.36372,-0.54768 0,-0.46824 -0.46823,-0.38878 -0.46823,-0.38878"
       style="fill:#002151;fill-opacity:1;fill-rule:nonzero;stroke:none;stroke-width:1.07024729" />
    <path
       inkscape:connector-curvature="0"
       id="path483"
       d="m 98.151565,107.09207 c 0,0 0.363712,-0.0795 0.363712,-0.5435 0,-0.46823 -0.468232,-0.38881 -0.468232,-0.38881 0,0 -0.309366,0.12955 -0.309366,0.59784 0,0.46405 0.413886,0.33447 0.413886,0.33447"
       style="fill:#002151;fill-opacity:1;fill-rule:nonzero;stroke:none;stroke-width:1.07024729" />
    <path
       style="clip-rule:nonzero;fill:#002151;fill-opacity:1;fill-rule:nonzero;stroke:none;stroke-width:1.07024729"
       d="m 100.30459,78.684531 c 0.13798,0.188094 0.63965,0.940621 0.63965,1.84784 0,0.25514 -0.0291,0.656357 -0.0291,0.656357 0,0 -0.0252,0.392995 -0.2174,1.158051 0.27592,-0.413897 0.66473,-1.070254 0.80269,-1.617941 l 0.0167,-0.0628 0.0291,0.05855 c 0.008,0.0182 0.20902,0.388808 0.24249,0.781773 0.0752,-0.179903 0.2383,-0.606178 0.2383,-1.074411 1e-5,-0.773429 -0.79013,-1.709894 -1.72243,-1.747513"
       id="path485"
       inkscape:connector-curvature="0" />
    <path
       inkscape:connector-curvature="0"
       id="path489"
       d="m 100.51364,81.531544 v 0.003 c -0.0167,-0.246646 -0.046,-0.535127 -0.10458,-0.865384 -0.0794,0.250893 -0.40134,0.861197 -1.676446,2.06521 -0.73161,0.685633 -1.124592,1.204044 -1.124592,1.98166 0,1.509211 1.346175,2.704881 1.676444,2.976616 -0.112887,-0.292759 -0.451516,-1.283468 -0.451516,-2.449862 0,-0.514225 0.301011,-0.815235 0.593657,-1.107873 l 0.07105,-0.07099 c 0.200684,-0.200533 0.510043,-0.510038 0.710713,-0.811049 h 0.004 c 0,0 0.1505,-0.209027 0.24667,-0.547687 0.0124,-0.05855 0.0291,-0.150475 0.046,-0.280017 0.0167,-0.14198 0.0294,-0.539283 0.009,-0.894659"
       style="fill:#002151;fill-opacity:1;fill-rule:nonzero;stroke:none;stroke-width:1.07024729" />
    <path
       inkscape:connector-curvature="0"
       id="path491"
       d="m 93.44832,95.101939 c -0.2174,0 -0.384615,0.175656 -0.384615,0.388808 0,0.09192 0.04184,0.183847 0.1087,0.250893 -0.04602,-0.01214 -0.09192,-0.02124 -0.137946,-0.02124 -0.267548,0 -0.484961,0.217521 -0.484961,0.484948 0,0.271826 0.217401,0.484979 0.484961,0.484979 0.04602,0 0.08777,-0.0091 0.129603,-0.01517 -0.104574,0.355346 -0.438972,0.585276 -0.806868,0.585276 -0.714893,0 -0.999173,-0.769213 -1.028434,-0.953181 0.05855,0.196588 0.238303,0.351189 0.459862,0.351189 0.267549,0 0.480777,-0.217521 0.480777,-0.484979 0,-0.263331 -0.213213,-0.480761 -0.480777,-0.480761 -0.05018,0 -0.09611,0.01214 -0.142132,0.03034 0.100266,-0.09192 0.167222,-0.217521 0.167222,-0.363719 0,-0.267578 -0.2174,-0.476605 -0.484949,-0.476605 -0.263392,0 -0.480777,0.209027 -0.480777,0.476605 0,0.146228 0.07105,0.27577 0.171408,0.367876 -0.05018,-0.02124 -0.100296,-0.03337 -0.158848,-0.03337 -0.263392,0 -0.480777,0.217522 -0.480777,0.480762 0,0.267579 0.2174,0.484979 0.480777,0.484979 0.221587,0 0.405515,-0.154723 0.459865,-0.35119 -0.02518,0.221466 -0.430604,0.953181 -1.03262,0.953181 -0.397157,0 -0.719076,-0.242398 -0.811042,-0.585275 0.04184,0.0091 0.08358,0.0182 0.129602,0.0182 0.263362,0 0.484961,-0.213274 0.484961,-0.484978 0,-0.267579 -0.221587,-0.484949 -0.484961,-0.484949 -0.05018,0 -0.09611,0.0091 -0.137975,0.02124 0.06689,-0.06674 0.1087,-0.15897 0.1087,-0.250893 0,-0.213274 -0.163066,-0.388808 -0.3888,-0.388808 -0.188154,0 -0.242489,0.04611 -0.242489,0.04611 0.100266,0.397151 0.2174,1.19567 0.238303,1.30437 l 0.334452,2.182283 h 3.603727 c 0,0 0.0042,-0.03337 0.0085,-0.0628 l 0.330281,-2.119605 c 0.07105,-0.493322 0.158878,-1.015889 0.229929,-1.30437 0,0 -0.05437,-0.04611 -0.242489,-0.04611"
       style="fill:#002151;fill-opacity:1;fill-rule:nonzero;stroke:none;stroke-width:1.07024729" />
    <path
       inkscape:connector-curvature="0"
       id="path493"
       d="m 100.26279,95.101939 c -0.2174,0 -0.384615,0.175656 -0.384615,0.388808 0,0.09192 0.04184,0.183847 0.1087,0.250893 -0.04602,-0.01214 -0.09192,-0.02124 -0.137976,-0.02124 -0.267548,0 -0.484951,0.217521 -0.484951,0.484948 0,0.271826 0.2174,0.484979 0.484951,0.484979 0.04602,0 0.08777,-0.0091 0.129603,-0.01517 -0.104574,0.355346 -0.438975,0.585276 -0.806871,0.585276 -0.714893,0 -0.999173,-0.769213 -1.028443,-0.953181 0.05855,0.196588 0.238303,0.351189 0.459875,0.351189 0.267548,0 0.480777,-0.217521 0.480777,-0.484979 0,-0.263331 -0.213214,-0.480761 -0.480777,-0.480761 -0.05018,0 -0.09611,0.01214 -0.142133,0.03034 0.100297,-0.09192 0.167222,-0.217521 0.167222,-0.363719 0,-0.267578 -0.2174,-0.476605 -0.484961,-0.476605 -0.263392,0 -0.480777,0.209027 -0.480777,0.476605 0,0.146228 0.07105,0.27577 0.171408,0.367876 -0.05018,-0.02124 -0.100296,-0.03337 -0.158878,-0.03337 -0.263392,0 -0.480777,0.217522 -0.480777,0.480762 0,0.267579 0.2174,0.484979 0.480777,0.484979 0.221586,0 0.405527,-0.154723 0.459874,-0.35119 -0.02518,0.221466 -0.430604,0.953181 -1.032617,0.953181 -0.397169,0 -0.71908,-0.242398 -0.811055,-0.585275 0.04184,0.0091 0.08358,0.0182 0.129603,0.0182 0.263392,0 0.484949,-0.213274 0.484949,-0.484978 0,-0.267579 -0.221587,-0.484949 -0.484949,-0.484949 -0.05018,0 -0.09623,0.0091 -0.137976,0.02124 0.07105,-0.06674 0.1087,-0.15897 0.1087,-0.250893 0,-0.213274 -0.163035,-0.388808 -0.388799,-0.388808 -0.188124,0 -0.242489,0.04611 -0.242489,0.04611 0.100296,0.397151 0.221586,1.19567 0.238303,1.30437 l 0.334452,2.182283 h 3.603714 c 0,0 0.0042,-0.03337 0.0085,-0.0628 l 0.330276,-2.119605 c 0.071,-0.493322 0.16722,-1.045165 0.22993,-1.30437 0,0 -0.0544,-0.04611 -0.24249,-0.04611"
       style="fill:#002151;fill-opacity:1;fill-rule:nonzero;stroke:none;stroke-width:1.07024729" />
    <path
       inkscape:connector-curvature="0"
       id="path495"
       d="m 97.123122,99.46238 c -0.242489,0 -0.422243,0.196588 -0.422243,0.426427 0,0.104665 0.04602,0.204783 0.121229,0.280013 -0.05018,-0.0182 -0.100296,-0.0243 -0.150505,-0.0243 -0.301011,0 -0.539299,0.2424 -0.539299,0.5351 0,0.30095 0.238303,0.53513 0.539299,0.53513 0.05018,0 0.09192,-0.009 0.137976,-0.0152 -0.117074,0.39299 -0.484964,0.64383 -0.890479,0.64383 -0.785969,0 -1.099521,-0.84867 -1.132965,-1.04933 0.06271,0.21753 0.263392,0.3846 0.505863,0.3846 0.292638,0 0.53094,-0.23816 0.53094,-0.53094 0,-0.29276 -0.238302,-0.53095 -0.53094,-0.53095 -0.05437,0 -0.104574,0.0121 -0.154692,0.0303 0.112887,-0.10042 0.179781,-0.238452 0.179781,-0.401335 0,-0.292759 -0.234116,-0.526754 -0.530949,-0.526754 -0.292638,0 -0.530938,0.234207 -0.530938,0.526754 0,0.162913 0.07524,0.305195 0.188125,0.405525 -0.05437,-0.0212 -0.112887,-0.0334 -0.171409,-0.0334 -0.292637,0 -0.530952,0.23815 -0.530952,0.53094 0,0.29276 0.238303,0.53094 0.530952,0.53094 0.24249,0 0.443146,-0.16716 0.505852,-0.38462 -0.02912,0.2424 -0.476594,1.04935 -1.137137,1.04935 -0.438963,0 -0.794326,-0.26758 -0.894662,-0.64383 0.04602,0.009 0.08777,0.0152 0.142162,0.0152 0.292638,0 0.535124,-0.23421 0.535124,-0.53513 0,-0.29276 -0.242489,-0.53512 -0.535124,-0.53512 -0.05855,0 -0.1087,0.009 -0.154692,0.0243 0.07524,-0.0752 0.12123,-0.175659 0.12123,-0.280021 0,-0.22996 -0.179782,-0.426427 -0.42643,-0.426427 -0.209027,0 -0.271735,0.05006 -0.271735,0.05006 0.112886,0.438957 0.242489,1.316898 0.263392,1.438158 l 0.372071,2.40806 h 3.971623 c 0,0 0.0085,-0.0376 0.01244,-0.067 l 0.359526,-2.34116 c 0.07942,-0.5435 0.183938,-1.158051 0.255019,-1.438159 0,0 -0.05855,-0.05006 -0.267548,-0.05006"
       style="fill:#002151;fill-opacity:1;fill-rule:nonzero;stroke:none;stroke-width:1.07024729" />
  </g>
</svg>
